<svg width="12" height="7" viewBox="0 0 12 7" fill="none" xmlns="http://www.w3.org/2000/svg">
<g clip-path="url(#clip0_2_158)">
<path d="M3.51972 4.77014C3.51972 4.7481 3.51972 4.72744 3.51972 4.70743C3.52282 4.70918 3.52509 4.71161 3.53133 4.71083C3.56226 4.7069 3.57515 4.6904 3.58265 4.6671C3.58229 4.66418 3.58061 4.6629 3.58024 4.65995C3.57857 4.64673 3.58609 4.63537 3.58366 4.6163C3.58326 4.61338 3.5829 4.61046 3.58089 4.60623C3.58086 4.59432 3.58656 4.58018 3.58469 4.56551C3.57966 4.52593 3.52733 4.53845 3.52414 4.51354C3.52321 4.5062 3.52763 4.50564 3.53354 4.50489C3.55269 4.50247 3.57954 4.47822 3.57675 4.45621C3.56889 4.39461 3.52019 4.365 3.49955 4.36758C3.49662 4.36795 3.49385 4.36978 3.49256 4.37145C3.49256 4.37145 3.49256 4.37145 3.49236 4.36998C3.492 4.36706 3.49768 4.35292 3.5021 4.35236C3.51684 4.35049 3.53675 4.36586 3.55353 4.36822C3.57711 4.36525 3.57692 4.35186 3.57429 4.33132C3.58553 4.32542 3.59325 4.31551 3.59157 4.30231C3.59082 4.29644 3.58861 4.29076 3.58766 4.28344C3.58746 4.28197 3.59026 4.28013 3.59115 4.27554C3.59059 4.27114 3.57513 4.26713 3.57085 4.25722C3.57068 4.25575 3.57177 4.25263 3.57141 4.24968C3.57068 4.24381 3.55963 4.25118 3.55888 4.24531C3.58463 4.2361 3.59146 4.23078 3.5907 4.22491C3.59051 4.22346 3.58889 4.22218 3.58869 4.22071C3.59107 4.21595 3.59529 4.21392 3.59641 4.2108C3.58533 4.19432 3.5838 4.17066 3.55434 4.17439C3.52635 4.1779 3.52215 4.20378 3.52475 4.22433C3.5257 4.23165 3.53656 4.23476 3.53714 4.23916C3.53731 4.24061 3.53309 4.24264 3.53309 4.24264C3.52867 4.2432 3.52498 4.23769 3.52165 4.23512C3.47047 4.26841 3.4823 4.27885 3.46314 4.28127C3.45872 4.28183 3.45413 4.28094 3.44912 4.2771C3.43808 4.28289 3.41741 4.3027 3.41249 4.30396C3.41327 4.30674 3.41425 4.30905 3.41455 4.31125C3.41528 4.31712 3.40644 4.31824 3.407 4.32263C3.40759 4.32706 3.41072 4.32814 3.41089 4.32959C3.41148 4.33399 3.40907 4.33878 3.40944 4.34173C3.41016 4.34757 3.42051 4.35818 3.42255 4.36241C3.41005 4.38189 3.39257 4.38556 3.39003 4.4127C3.39596 4.42389 3.40225 4.438 3.41184 4.45468C3.40356 4.46019 3.40323 4.46918 3.3966 4.47597L3.39738 4.50567C3.40127 4.51262 3.43243 4.52212 3.43391 4.53383C3.43522 4.5441 3.43911 4.55106 3.44613 4.55911C3.44669 4.5635 3.44155 4.57013 3.44101 4.57764C3.44636 4.57249 3.44706 4.56645 3.45111 4.56295L3.45561 4.56531C3.42681 4.68561 3.51972 4.80593 3.51972 4.9262C3.54587 4.87418 3.53714 4.82216 3.51972 4.77014Z" fill="#111827"/>
<path d="M8.70208 6.09833C8.7362 6.03044 8.74065 5.97725 8.73478 5.92604C8.74798 5.92095 8.76191 5.9146 8.78397 5.92367C8.78151 5.91126 8.78364 5.8969 8.78632 5.89041C8.80255 5.8515 8.84517 5.85008 8.85325 5.8306C8.85734 5.82083 8.84752 5.81685 8.857 5.79411C8.86296 5.78896 8.87487 5.77866 8.87756 5.77218C8.88161 5.76244 8.85577 5.73277 8.86385 5.71334C8.87171 5.71275 8.87904 5.7044 8.88041 5.70115C8.88986 5.67843 8.82814 5.68909 8.85443 5.62586C8.85714 5.61934 8.85795 5.60824 8.84816 5.60423C8.84162 5.60153 8.82724 5.59944 8.82397 5.59808C8.8261 5.58372 8.8125 5.57052 8.80599 5.56785C8.78968 5.56114 8.76716 5.57848 8.7482 5.57826C8.74138 5.57133 8.73539 5.56368 8.73055 5.55574C8.73324 5.54002 8.73584 5.5241 8.73838 5.50809C8.7414 5.50801 8.74429 5.5082 8.74638 5.50907C8.74966 5.51043 8.75159 5.515 8.7548 5.51636C8.76462 5.5204 8.77788 5.50684 8.77922 5.50361C8.7833 5.49387 8.77427 5.47873 8.77508 5.46771L8.79141 5.47441C8.79547 5.46464 8.79122 5.46103 8.78506 5.45282C8.79429 5.449 8.79835 5.43929 8.80106 5.43275C8.80915 5.41329 8.79961 5.39036 8.80364 5.38062C8.80638 5.37416 8.81424 5.3736 8.81751 5.37494C8.85661 5.39105 8.8817 5.43177 8.9208 5.44792C8.92407 5.44925 8.92407 5.44925 8.92541 5.44602C8.90852 5.43147 8.88189 5.4129 8.86774 5.39186L8.88212 5.39398C8.87829 5.38482 8.87409 5.38117 8.8692 5.37917C8.8643 5.37714 8.86039 5.37741 8.85546 5.37538C8.85412 5.37864 8.86528 5.37945 8.86584 5.38727C8.85116 5.38123 8.8457 5.37137 8.82615 5.36333C8.82749 5.3601 8.83535 5.35952 8.83535 5.35952C8.84184 5.36222 8.85356 5.37079 8.85356 5.37079C8.85963 5.35623 8.85611 5.35095 8.84671 5.34137C8.87325 5.31429 8.88738 5.31251 8.89714 5.31654C8.90365 5.31921 8.90625 5.32216 8.91118 5.32417C8.91277 5.32484 8.91669 5.32456 8.91971 5.322L8.89689 5.31259C8.90097 5.30285 8.89521 5.2891 8.89602 5.27802L8.93322 5.28954C8.93266 5.28172 8.92614 5.27905 8.9229 5.27769C8.91311 5.27365 8.90525 5.27421 8.8987 5.27154C8.90953 5.24554 8.95246 5.27087 8.97741 5.26594C8.96762 5.26191 8.95649 5.26113 8.9467 5.25712C8.93367 5.25175 8.92332 5.23986 8.92871 5.22689C8.93411 5.21392 9.01754 5.25208 9.03326 5.25097C8.99279 5.23811 8.96155 5.22141 8.9314 5.22038C8.9368 5.20741 8.92838 5.20011 8.93241 5.1904C8.93836 5.18525 8.94435 5.1801 8.95545 5.18091C8.94239 5.17554 8.9394 5.15525 8.94343 5.14553C8.94938 5.14038 8.96051 5.14119 8.96784 5.13279C8.95341 5.13064 8.94681 5.13743 8.94516 5.13677C8.94351 5.1361 8.94421 5.13448 8.94421 5.13448C8.94555 5.13125 8.95151 5.12608 8.95422 5.11959C8.95556 5.11636 8.95363 5.11177 8.95039 5.11044C8.9406 5.10637 8.93596 5.10829 8.92947 5.10559C8.92298 5.10292 8.92105 5.0983 8.92239 5.0951C8.92645 5.08533 8.94541 5.08558 8.95084 5.07258C8.95221 5.06935 8.94896 5.06802 8.94896 5.06802C8.92614 5.05861 8.9232 5.08399 8.9069 5.07726C8.89384 5.07191 8.9133 5.03431 8.91948 5.01026C8.90567 5.01594 8.88911 5.02816 8.8761 5.02279C8.85977 5.01605 8.85943 4.9893 8.86215 4.98279C8.86486 4.97628 8.86623 4.97308 8.87216 4.96793C8.86696 4.962 8.86833 4.95874 8.86967 4.95551C8.87238 4.94903 8.87834 4.94388 8.88103 4.93739C8.8824 4.93417 8.8824 4.93417 8.88044 4.92957C8.8699 4.93664 8.86234 4.96392 8.85255 4.95991C8.84931 4.95855 8.84548 4.94936 8.84221 4.94803C8.85549 4.93447 8.88609 4.89768 8.8888 4.89119C8.89149 4.88473 8.88956 4.88011 8.88631 4.87878C8.8636 4.91502 8.82545 4.97912 8.79938 4.9684C8.79284 4.9657 8.79443 4.94355 8.79849 4.93383C8.79983 4.93058 8.80448 4.92868 8.80582 4.92543C8.80109 4.92351 8.78045 4.94071 8.76196 4.94741C8.74736 4.82651 8.71562 4.711 8.6587 4.60874C8.65758 4.60058 8.65383 4.59301 8.65657 4.58644C8.65523 4.5897 8.65389 4.59293 8.65319 4.59457L8.65221 4.59738C8.62304 4.54711 8.58774 4.50005 8.54498 4.45749C8.52778 4.50887 8.52565 4.56401 8.53035 4.6204C8.52859 4.62109 8.52708 4.6224 8.52638 4.62404C8.52786 4.62624 8.52971 4.62839 8.53136 4.63056C8.54145 4.73468 8.57278 4.84262 8.57418 4.93904C8.56475 4.93912 8.55477 4.93998 8.54475 4.94711C8.52101 4.90313 8.508 4.78751 8.49958 4.78025C8.48979 4.77621 8.48515 4.7781 8.47922 4.78325C8.46977 4.80596 8.49902 4.85036 8.49223 4.89887C8.47754 5.00305 8.47592 5.13543 8.4708 5.15232C8.46971 5.15494 8.46832 5.15764 8.46697 5.16037L8.46644 5.16076C8.45422 5.17289 8.44583 5.18506 8.4406 5.19691C8.41624 5.18687 8.39962 5.17623 8.36709 5.16282C8.40868 5.19135 8.4467 5.19179 8.42782 5.23724C8.41224 5.27454 8.32489 5.29177 8.29737 5.29372C8.25404 5.29675 8.20501 5.34118 8.20571 5.33953C8.20571 5.33953 8.20761 5.34415 8.21086 5.34549C8.2174 5.34819 8.22605 5.33656 8.23855 5.33411C8.31186 5.34151 8.35868 5.26575 8.46625 5.31009C8.47956 5.31557 8.49184 5.32158 8.50339 5.32804C8.46664 5.35211 8.46647 5.41262 8.46647 5.4733C8.48938 5.49612 8.51231 5.51227 8.5313 5.52568C8.52182 5.53364 8.51049 5.53659 8.4988 5.544C8.49939 5.55182 8.50378 5.56883 8.49835 5.5818C8.49561 5.58828 8.49024 5.60125 8.48045 5.59724C8.47721 5.59591 8.47528 5.59131 8.46876 5.58864C8.46552 5.58728 8.45766 5.58784 8.45492 5.59429C8.44952 5.60729 8.47234 5.6167 8.46426 5.63615C8.45827 5.64133 8.44258 5.64245 8.43853 5.65216C8.43444 5.66193 8.44804 5.67507 8.44398 5.68486C8.43802 5.68998 8.42611 5.70031 8.42208 5.71003C8.41934 5.71648 8.42645 5.727 8.43623 5.73104C8.43951 5.7324 8.44737 5.73182 8.45064 5.73318C8.45715 5.73588 8.45825 5.75152 8.45693 5.75475C8.45425 5.76121 8.44311 5.76046 8.44177 5.76372C8.4404 5.76694 8.44367 5.76828 8.44692 5.76964C8.44893 5.77045 8.45167 5.77045 8.45472 5.77023C8.37923 5.97725 8.48521 6.20627 8.23091 6.3328C8.30942 6.3328 8.3879 6.41096 8.3879 6.41096C8.54503 6.4109 8.54503 6.17649 8.70208 6.09833Z" fill="#111827"/>
<path d="M8.35193 6.09913C8.30953 6.08166 8.21782 6.23772 8.17511 6.30377C8.16972 6.31676 8.17083 6.33241 8.19041 6.34045C8.19363 6.34179 8.2094 6.34067 8.21539 6.33555C8.24674 6.28765 8.27759 6.2319 8.31225 6.18536C8.33065 6.17776 8.34858 6.16234 8.35803 6.1396C8.36337 6.12663 8.36821 6.10584 8.35193 6.09913Z" fill="#111827"/>
<path d="M9.35023 5.43478C9.34632 5.43506 9.34134 5.44249 9.33726 5.45223C9.33387 5.46033 9.33147 5.47074 9.32943 5.47561C9.34699 5.48855 9.35281 5.54798 9.3577 5.54998L9.35916 5.55034C9.35728 5.55282 9.35387 5.55466 9.35272 5.55744C9.35205 5.55908 9.35205 5.55908 9.35368 5.55972C9.3553 5.56039 9.36735 5.54063 9.42279 5.56351C9.43582 5.56888 9.47652 5.56284 9.47926 5.55636C9.48597 5.54013 9.46992 5.5145 9.47397 5.50475C9.47671 5.4983 9.48457 5.49768 9.48726 5.49123C9.49403 5.475 9.45646 5.4367 9.45207 5.41969C9.40637 5.40085 9.37544 5.4109 9.35023 5.43478Z" fill="#111827"/>
<path d="M3.70278 4.657L3.74151 4.66702C3.77687 4.66257 3.79505 4.62897 3.79057 4.59379C3.78777 4.57177 3.76764 4.54302 3.7529 4.54489C3.74996 4.54525 3.74699 4.54561 3.74423 4.54745C3.73944 4.54508 3.73315 4.54288 3.72579 4.5438C3.72431 4.544 3.72138 4.54439 3.72157 4.54583C3.6945 4.55672 3.68496 4.58769 3.68608 4.59652C3.68644 4.59944 3.68667 4.60091 3.68848 4.60364L3.68429 4.62953C3.69262 4.63596 3.7011 4.64381 3.70278 4.657Z" fill="#111827"/>
<path d="M4.74655 4.63028C4.60559 4.63028 4.60559 4.49002 4.46465 4.49002C4.74655 4.77053 4.32372 4.91078 4.32372 5.05106C4.60562 5.05109 4.46465 4.63028 4.74655 4.63028Z" fill="#111827"/>
<path d="M2.65603 2.50391C2.81305 2.50391 2.65603 2.73832 2.81305 2.66019C2.89156 2.58206 2.81305 2.58206 2.73451 2.58206C2.73451 2.50391 2.73451 2.42578 2.81305 2.34762C2.73454 2.42578 2.73454 2.42578 2.65603 2.50391Z" fill="#111827"/>
<path d="M3.15497 4.3655L3.15332 4.36422C3.15039 4.36458 3.14927 4.3677 3.14944 4.36917C3.14963 4.37065 3.15313 4.37468 3.15757 4.3741C3.15702 4.38164 3.15539 4.39225 3.15539 4.39225C3.15783 4.41134 3.18806 4.42539 3.18806 4.42539L3.18661 4.42556C3.19838 4.42409 3.19858 4.42553 3.20965 4.43013C3.21368 4.42665 3.2205 4.4213 3.22786 4.42038C3.23082 4.42 3.23376 4.41963 3.23709 4.42217C3.23522 4.4075 3.2612 4.39976 3.2586 4.37925C3.25821 4.37632 3.2551 4.37521 3.25471 4.37229C3.25435 4.36937 3.25524 4.36475 3.25636 4.36166" fill="#111827"/>
<path d="M3.05288 4.45735C3.04239 4.46912 3.02914 4.48271 3.03065 4.49445C3.03104 4.49737 3.03565 4.49829 3.03711 4.4981C3.03784 4.50394 3.03509 4.50581 3.03568 4.51021C3.04743 4.5087 3.04877 4.53091 3.06648 4.52866C3.09744 4.52476 3.10902 4.50987 3.10731 4.48477C3.10177 4.47653 3.10303 4.46294 3.07501 4.45457C3.07059 4.45512 3.06634 4.45713 3.06043 4.45791C3.05747 4.45827 3.05599 4.45846 3.05288 4.45735Z" fill="#111827"/>
<path d="M3.34737 4.47683C3.32673 4.47942 3.32198 4.50088 3.32293 4.50823C3.32477 4.5229 3.33512 4.53353 3.35428 4.53111C3.3705 4.52908 3.37674 4.51933 3.37802 4.50575C3.37579 4.48813 3.36801 4.47424 3.34737 4.47683Z" fill="#111827"/>
<path d="M4.74655 5.05109C4.88749 4.91081 4.88749 4.91081 5.02845 4.77056C4.60559 4.77056 4.60559 5.47185 4.18275 5.47185C4.60562 5.6121 4.5237 5.27284 4.74655 5.05109Z" fill="#111827"/>
<path d="M5.9539 1.0974C5.9539 1.25371 5.87533 1.25371 5.79682 1.33184C5.93261 1.2868 6.09436 1.29379 6.20713 1.3526C6.12535 1.27976 6.04555 1.18864 5.9539 1.0974Z" fill="#111827"/>
<path d="M6.73907 1.33184C6.73907 1.41 6.73907 1.48813 6.66053 1.48813C6.5123 1.52501 6.39905 1.49219 6.29601 1.42269C6.32767 1.46127 6.34647 1.50908 6.34647 1.56625C6.26796 1.64438 6.18942 1.72254 6.0324 1.72254C6.08342 1.72254 6.13441 1.75547 6.18542 1.77857C6.16358 1.78107 6.14129 1.78684 6.1207 1.79093C6.16979 1.80072 6.22869 1.80072 6.26796 1.80072C6.66053 1.80072 7.1317 1.72257 7.52427 1.80072C7.28872 1.56623 6.89614 1.64438 6.73907 1.33184Z" fill="#111827"/>
<path d="M11.4069 1.46764L11.4348 1.48153L11.4361 1.48278C11.4386 1.48278 11.4386 1.48024 11.4386 1.47899C11.4386 1.47393 11.4311 1.47774 11.4285 1.47393C11.4234 1.47139 11.4158 1.46764 11.4069 1.46764Z" fill="#111827"/>
<path d="M10.9232 1.06839C10.9232 1.06461 10.9232 1.06082 10.9194 1.06082C10.9168 1.06082 10.9143 1.06207 10.9143 1.06461C10.9156 1.06839 10.9194 1.06839 10.9232 1.06839Z" fill="#111827"/>
<path d="M11.4196 1.57121C11.4196 1.56867 11.417 1.56489 11.417 1.56236C11.417 1.55982 11.4196 1.55604 11.4196 1.55225C11.4196 1.54847 11.4158 1.54468 11.4158 1.54215C11.4158 1.53583 11.4285 1.53836 11.4285 1.53076C11.4259 1.52319 11.4145 1.51813 11.4145 1.51306C11.4145 1.50549 11.4234 1.50674 11.4297 1.50424L11.4285 1.49917C11.4132 1.49917 11.4044 1.49792 11.4005 1.48403C11.3993 1.48403 11.4069 1.47771 11.4069 1.47518L11.4031 1.4714C11.3993 1.4714 11.398 1.47646 11.3942 1.47771C11.3878 1.47771 11.3777 1.46254 11.351 1.45751C11.3447 1.46383 11.332 1.46001 11.3244 1.46508C11.3218 1.46383 11.3193 1.46126 11.3155 1.46126C11.3155 1.46761 11.3091 1.47265 11.3015 1.47265C11.2939 1.47265 11.2965 1.46886 11.2901 1.46382C11.2914 1.46001 11.2927 1.45625 11.2927 1.45244C11.2927 1.44612 11.2635 1.41581 11.2622 1.41453C11.2584 1.41328 11.2559 1.41075 11.2559 1.40696C11.2571 1.40443 11.2634 1.39561 11.2647 1.39304C11.2609 1.39304 11.2596 1.39304 11.2583 1.39558C11.2596 1.39051 11.2609 1.38673 11.2609 1.38294C11.2596 1.38547 11.2571 1.38673 11.2545 1.38673C11.252 1.38673 11.2469 1.38419 11.2469 1.38041C11.2469 1.37916 11.2495 1.37534 11.2495 1.37284V1.37158C11.2457 1.37412 11.2457 1.37916 11.2406 1.38297C11.2342 1.37665 11.2228 1.37158 11.2089 1.37158C11.2254 1.38297 11.2559 1.39182 11.2559 1.39561C11.2546 1.39939 11.2507 1.40192 11.247 1.40443C11.2432 1.40192 11.2419 1.39686 11.2394 1.39432C11.2368 1.39432 11.2355 1.39558 11.233 1.39558C11.2305 1.39558 11.2292 1.39179 11.2241 1.39179C11.2203 1.39304 11.2165 1.39432 11.2102 1.39432C11.2038 1.39432 11.2025 1.38926 11.1975 1.38926C11.1924 1.38926 11.1911 1.39936 11.1822 1.39936C11.1822 1.39936 11.1721 1.39808 11.1721 1.3943C11.1556 1.39936 11.1594 1.4221 11.1378 1.4221C11.1314 1.4221 11.1302 1.41704 11.1264 1.41704L11.1251 1.41957C11.1264 1.42589 11.1327 1.42714 11.1327 1.43221C11.1314 1.43599 11.1302 1.43978 11.1251 1.43978C11.1187 1.43978 11.1035 1.43471 11.0896 1.43471C11.0896 1.41704 11.1073 1.42082 11.1073 1.4044C11.1073 1.40062 11.1061 1.39558 11.0972 1.39558C11.0934 1.39558 11.0908 1.39808 11.0857 1.39808C11.0832 1.39808 11.0756 1.39683 11.0756 1.3943C11.0756 1.38798 11.0984 1.38545 11.1086 1.38166C11.1124 1.38673 11.115 1.39302 11.1175 1.39302L11.12 1.39051C11.12 1.38673 11.115 1.38166 11.115 1.37659C11.115 1.37409 11.1175 1.37281 11.1188 1.37281C11.1226 1.37281 11.1251 1.39051 11.1391 1.39051C11.1416 1.39051 11.1429 1.38926 11.1429 1.38673C11.1429 1.37534 11.1226 1.36777 11.1226 1.36399C11.1226 1.35892 11.1302 1.35764 11.1353 1.35764C11.1378 1.35764 11.1404 1.35892 11.1429 1.35892C11.1454 1.35514 11.1518 1.3526 11.1581 1.35007C11.1581 1.3425 11.1518 1.34628 11.1518 1.33365C11.1708 1.34122 11.2025 1.345 11.2254 1.35132C11.2279 1.35007 11.2305 1.35007 11.233 1.35007C11.2406 1.35007 11.2495 1.35385 11.2533 1.35892C11.2584 1.34628 11.2711 1.33997 11.2711 1.33871C11.27 1.33131 11.2646 1.32054 11.2636 1.31639C11.3602 1.31272 11.4508 1.30192 11.5215 1.25825L11.5364 1.26036C11.539 1.26036 11.5415 1.25911 11.5415 1.25911C11.5415 1.25585 11.5341 1.25471 11.5278 1.25429L11.5289 1.25365C11.5378 1.24475 11.5471 1.2364 11.5565 1.22841L11.558 1.2288L11.5605 1.22755C11.5631 1.22755 11.5669 1.22755 11.5669 1.22627C11.5669 1.22526 11.5637 1.22507 11.5605 1.22504C11.716 1.09639 11.9266 1.08209 12 0.862955C11.6859 0.784799 11.3719 0.941084 11.1363 0.784799C11.0577 0.941084 11.3719 0.784799 11.2933 0.941084C11.231 1.06508 11.1193 0.992381 11.0366 0.996083C11.041 0.99227 11.0489 0.994858 11.0489 0.98751C11.0489 0.984977 11.0477 0.982444 11.0477 0.981192C11.0477 0.971088 11.0565 0.948348 11.0565 0.94331C11.0565 0.942058 11.054 0.938245 11.0515 0.934459C11.054 0.924356 11.0692 0.909187 11.0705 0.897831C11.0705 0.895298 11.0642 0.891484 11.0642 0.888979C11.0642 0.885166 11.0807 0.864959 11.0807 0.859921C11.0807 0.857416 11.0769 0.853603 11.0743 0.853603C11.0591 0.862426 11.0629 0.880128 11.0527 0.885166C11.0477 0.875063 11.0388 0.862426 11.0388 0.853603C11.0388 0.849818 11.0388 0.846032 11.04 0.8435C11.04 0.837181 11.0197 0.837181 11.0197 0.816974C11.0197 0.804338 11.0337 0.792982 11.0337 0.789168L11.0312 0.785383C11.0223 0.785383 11.021 0.808123 11.0108 0.808123C11.0032 0.808123 11.0032 0.799272 11.0032 0.790421C11.0058 0.787888 11.0159 0.790421 11.0159 0.78157C11.0159 0.772719 11.007 0.773999 11.007 0.767681C11.007 0.765148 11.0083 0.762615 11.0083 0.76011C11.007 0.757577 11.0058 0.756325 11.0045 0.756325C11.0045 0.756325 10.9715 0.77656 10.9689 0.77656C10.9689 0.77656 10.9689 0.77656 10.9829 0.785383C10.9829 0.785383 10.988 0.781598 10.9905 0.781598C10.9968 0.781598 10.9956 0.795514 10.9956 0.7993C10.9829 0.796767 10.9892 0.791701 10.9473 0.791701C10.9549 0.784131 10.9613 0.774027 10.9613 0.762671C10.9613 0.758886 10.9587 0.75382 10.9587 0.750035C10.9587 0.748782 10.9778 0.7298 10.9778 0.720976C10.9778 0.715911 10.9677 0.717191 10.9677 0.709592C10.9677 0.70834 10.9702 0.704527 10.974 0.704527C10.9766 0.704527 10.9791 0.705807 10.9816 0.705807C10.9841 0.705807 10.988 0.704527 10.988 0.698236C10.9867 0.694451 10.9816 0.690666 10.9778 0.690666C10.9753 0.690666 10.974 0.693199 10.9702 0.693199C10.9512 0.693199 10.9601 0.667926 10.9524 0.667926L10.9486 0.669178C10.927 0.669178 10.9105 0.643905 10.9105 0.645186C10.9105 0.6414 10.9118 0.638867 10.9118 0.635082L10.9093 0.632549C10.9067 0.632549 10.9042 0.632549 10.9042 0.6414C10.9042 0.645186 10.9067 0.650251 10.9067 0.655289C10.9067 0.659075 10.9004 0.656542 10.9004 0.660355L10.9016 0.661635C10.9029 0.661635 10.875 0.678057 10.8712 0.678057C10.8712 0.67931 10.8661 0.698264 10.8585 0.70205C10.8598 0.704555 10.8623 0.710901 10.8623 0.712153C10.8623 0.715939 10.8559 0.714686 10.8559 0.718499L10.8585 0.721004L10.8623 0.719752C10.8648 0.719752 10.8648 0.722285 10.8648 0.723537C10.8648 0.728603 10.861 0.729855 10.861 0.732388C10.8674 0.738706 10.8839 0.755128 10.8839 0.753848C10.8826 0.753848 10.8813 0.7551 10.8788 0.7551C10.8762 0.7551 10.8737 0.752567 10.8737 0.748782C10.8648 0.748782 10.828 0.760166 10.828 0.774055L10.8292 0.77784C10.8292 0.782906 10.8242 0.785411 10.8204 0.789224L10.8268 0.814497C10.828 0.818282 10.8331 0.822068 10.8343 0.827133C10.8369 0.827133 10.8394 0.825881 10.8419 0.825881C10.8458 0.825881 10.8458 0.830919 10.8458 0.835984C10.8483 0.835984 10.8521 0.833452 10.8534 0.833452C10.8572 0.833452 10.8559 0.83977 10.8597 0.83977L10.8636 0.837237L10.8711 0.83977L10.8762 0.837237L10.8775 0.83977C10.8775 0.848621 10.8673 0.865043 10.8559 0.878932C10.8559 0.881464 10.8623 0.88525 10.8623 0.889035C10.8623 0.894073 10.8521 0.89282 10.8521 0.900391C10.8521 0.905457 10.8572 0.907962 10.8572 0.913028C10.8572 0.918093 10.8547 0.924412 10.8521 0.929477C10.8521 0.940833 10.8623 0.940833 10.8623 0.949684C10.8623 0.95347 10.8572 0.957255 10.8572 0.961068C10.8572 0.967386 10.8725 0.964854 10.8725 0.97749C10.8725 0.985061 10.8636 0.983836 10.8636 0.988874C10.8636 0.991407 10.8674 0.992659 10.8686 0.992659C10.8712 0.992659 10.8737 0.991407 10.8775 0.991407C10.8851 0.991407 10.8991 1.02425 10.9029 1.0255C10.9042 1.0255 10.908 1.02425 10.9105 1.02425C10.9194 1.02425 10.9105 1.03817 10.9207 1.03817C10.9232 1.03817 10.9258 1.0331 10.9283 1.0331C10.932 1.0331 10.9453 1.04613 10.9577 1.04802C10.9436 1.0667 10.9292 1.08504 10.9145 1.10302C10.9121 1.10274 10.9095 1.10257 10.9067 1.10257C10.9143 1.09375 10.9181 1.08237 10.9181 1.07477L10.9168 1.07352C10.9118 1.07352 10.8953 1.11772 10.8953 1.12153V1.12531L10.8955 1.1259C10.8597 1.16801 10.8221 1.20829 10.783 1.24714C10.7695 1.22757 10.7656 1.22251 10.7531 1.21627C10.734 1.21627 10.7239 1.22638 10.7201 1.24658L10.7226 1.26426C10.7239 1.26679 10.7315 1.26932 10.7327 1.27311C10.7395 1.27311 10.7461 1.27578 10.7517 1.27767C10.7373 1.29145 10.7228 1.30506 10.7081 1.31853L10.7086 1.31606C10.7086 1.30467 10.6985 1.2971 10.6858 1.2971C10.6756 1.2971 10.6655 1.30217 10.6655 1.31606C10.6655 1.32744 10.6743 1.33123 10.6782 1.33754L10.682 1.33629C10.6844 1.33629 10.6862 1.33671 10.6879 1.33707C10.6686 1.35433 10.6492 1.37131 10.6296 1.38809L10.6286 1.38684C10.6248 1.38684 10.6211 1.39062 10.6185 1.39062C10.6147 1.39062 10.6134 1.38556 10.6097 1.3843C10.6046 1.39441 10.5982 1.4083 10.5855 1.4083C10.5779 1.4083 10.569 1.40576 10.5652 1.40073L10.5678 1.4083C10.5665 1.41083 10.5627 1.41208 10.5602 1.41208C10.5563 1.41083 10.5525 1.40702 10.5513 1.40323C10.5513 1.39945 10.5513 1.39441 10.5563 1.39441C10.5589 1.39441 10.5602 1.39819 10.564 1.39819L10.5665 1.39441C10.5665 1.39188 10.5551 1.38556 10.5513 1.38177C10.5475 1.38809 10.5462 1.39819 10.5411 1.39819C10.5284 1.39819 10.517 1.3742 10.5068 1.3742L10.5043 1.37545C10.5132 1.3843 10.5411 1.40326 10.5411 1.40704C10.5411 1.40958 10.5385 1.41083 10.5373 1.41083C10.5335 1.41083 10.5309 1.40576 10.5284 1.40201L10.5271 1.40579C10.5271 1.40832 10.5271 1.41086 10.5284 1.41211C10.5284 1.41086 10.4929 1.48161 10.4814 1.48161C10.4599 1.48161 10.4573 1.47151 10.4395 1.46519L10.437 1.46772C10.437 1.46897 10.4586 1.48036 10.4586 1.49928C10.4586 1.50435 10.4497 1.50182 10.4497 1.5056L10.451 1.50814C10.4548 1.50814 10.4598 1.5056 10.4649 1.5056C10.4686 1.5056 10.4717 1.51014 10.4738 1.51521C10.446 1.53705 10.418 1.55877 10.39 1.58036C10.3783 1.58125 10.3679 1.58813 10.3645 1.5999C10.0725 1.82419 9.77604 2.04421 9.59222 2.37624C9.93834 2.38687 10.3131 2.39115 10.4295 2.73846C10.2725 2.73846 10.194 2.9729 10.0369 2.89475C9.8991 3.23757 9.57992 3.52019 9.23853 3.53149C9.72695 3.54199 10.1501 3.2509 10.5081 2.89475C10.5866 2.81659 10.6651 3.05103 10.8221 2.9729C10.4295 2.73846 10.194 2.34776 9.80138 2.11335C9.97115 1.88809 10.2225 1.70342 10.4967 1.64711V1.64714C10.4967 1.67494 10.4814 1.6939 10.4814 1.71664C10.4814 1.72042 10.4827 1.72421 10.484 1.72799C10.4954 1.72799 10.5056 1.70272 10.5208 1.69893C10.5348 1.70528 10.5462 1.69515 10.5525 1.71664C10.5665 1.73053 10.5665 1.72674 10.5716 1.74695L10.5703 1.77854L10.5716 1.78104C10.5729 1.78104 10.5741 1.76209 10.5741 1.75833C10.5741 1.75455 10.5741 1.75076 10.5729 1.74823C10.5843 1.73684 10.5741 1.71285 10.5957 1.71285C10.6097 1.71285 10.6148 1.74188 10.6262 1.74188C10.6274 1.74188 10.6351 1.74063 10.6351 1.7381C10.6351 1.73178 10.6312 1.72418 10.6312 1.71789C10.6312 1.71285 10.6325 1.70272 10.6389 1.70272C10.6439 1.70272 10.6477 1.70651 10.6541 1.70904C10.6604 1.69893 10.6719 1.68123 10.6833 1.68123C10.6947 1.68123 10.7214 1.73682 10.7265 1.73682C10.7315 1.73682 10.7328 1.73303 10.7328 1.7305C10.7328 1.72039 10.6935 1.69008 10.6935 1.67745C10.6935 1.67366 10.6973 1.67366 10.6973 1.67366C10.6973 1.67113 10.6846 1.65724 10.6846 1.65471C10.6846 1.6512 10.6944 1.63798 10.7012 1.63021L10.7031 1.63027C10.7198 1.63812 10.7409 1.64165 10.7639 1.64321C10.7764 1.64844 10.7885 1.65423 10.8001 1.66103C10.8306 1.67113 10.8623 1.6787 10.8877 1.69262C10.889 1.69387 10.8915 1.69387 10.8941 1.69387C10.8966 1.69387 10.9004 1.69134 10.9004 1.6888C10.9004 1.68123 10.889 1.67742 10.8763 1.67742C10.8587 1.67742 10.8203 1.66203 10.7871 1.64416C10.7986 1.64444 10.8104 1.64446 10.8222 1.64446C10.806 1.64124 10.7898 1.63873 10.7736 1.63656C10.7485 1.62186 10.7291 1.60672 10.7291 1.59784H10.7227C10.7227 1.58014 10.7303 1.54983 10.7456 1.54983L10.7506 1.55108C10.7532 1.55108 10.7557 1.5473 10.7557 1.54476C10.7557 1.54095 10.7519 1.53719 10.7519 1.53213C10.7519 1.52834 10.7545 1.52581 10.7595 1.52581C10.7621 1.52581 10.7671 1.52834 10.7671 1.53213C10.7658 1.53466 10.7595 1.55108 10.7595 1.55108C10.7608 1.5549 10.7646 1.55743 10.7646 1.56119C10.7646 1.57382 10.7456 1.56625 10.7443 1.57382L10.7621 1.57004C10.7583 1.57889 10.7494 1.58771 10.7494 1.59024C10.7494 1.59403 10.7557 1.59656 10.757 1.59656C10.7583 1.59656 10.7608 1.59531 10.7633 1.59531C10.7659 1.59531 10.7684 1.59784 10.7684 1.60038C10.7684 1.60416 10.7671 1.61176 10.7646 1.61301C10.7646 1.61555 10.7646 1.61933 10.7684 1.61933C10.771 1.61933 10.7735 1.6168 10.776 1.6168C10.7785 1.6168 10.7862 1.61805 10.7862 1.62314C10.7862 1.6244 10.7849 1.62818 10.7849 1.63071C10.7913 1.62818 10.7989 1.62186 10.8103 1.62186C10.8192 1.62186 10.8192 1.63957 10.8357 1.63957C10.8395 1.63957 10.8408 1.63325 10.8445 1.63325C10.8471 1.6345 10.8496 1.63831 10.8534 1.63831C10.8521 1.6345 10.8496 1.63074 10.8496 1.62693C10.8496 1.6244 10.8496 1.6244 10.8509 1.6244C10.856 1.6244 10.8598 1.62818 10.8648 1.62946C10.8623 1.62568 10.8572 1.6244 10.856 1.62061C10.856 1.61683 10.8813 1.5903 10.8813 1.58649C10.8902 1.58649 10.9004 1.59027 10.9144 1.59027C10.9055 1.58649 10.8991 1.58523 10.8902 1.58395L10.8864 1.58523C10.8788 1.58523 10.8712 1.57638 10.8712 1.56753C10.8712 1.55743 10.8852 1.55615 10.8852 1.55111C10.8852 1.54101 10.875 1.53344 10.875 1.52331C10.875 1.51195 10.8902 1.51067 10.889 1.51067C10.8915 1.51067 10.8941 1.51192 10.8978 1.51192C10.9004 1.51192 10.903 1.51067 10.903 1.50939C10.903 1.5056 10.8966 1.5056 10.8966 1.50432C10.8966 1.498 10.903 1.498 10.9055 1.498C10.9055 1.50054 10.9042 1.50432 10.9042 1.50939C10.922 1.50939 10.9258 1.51949 10.9258 1.5397H10.9334L10.9321 1.54223L10.9334 1.54348L10.9359 1.54215C10.9423 1.55225 10.9689 1.56995 10.9689 1.57246L10.9753 1.57121C10.9867 1.58259 10.9944 1.60658 11.0121 1.60658C11.0312 1.60658 11.0248 1.56489 11.0362 1.56489C11.0553 1.56489 11.068 1.57624 11.0807 1.59141L11.0819 1.59267C11.0832 1.59267 11.0845 1.59013 11.0845 1.5876C11.0845 1.5851 11.0718 1.56993 11.0718 1.55348C11.0718 1.54591 11.0781 1.54084 11.0857 1.54084C11.0934 1.54084 11.0959 1.54841 11.1035 1.54841L11.1048 1.54337C11.1048 1.52948 11.0959 1.53074 11.0959 1.52314C11.0959 1.51554 11.1175 1.5105 11.1315 1.5105L11.1467 1.52818C11.1467 1.53071 11.1441 1.53449 11.1441 1.53956C11.1441 1.54335 11.1454 1.55092 11.148 1.55092C11.1505 1.55092 11.1543 1.54713 11.1568 1.54588C11.1733 1.54588 11.1759 1.56987 11.1899 1.56987C11.1937 1.56987 11.1975 1.56355 11.2 1.56355C11.2038 1.56355 11.2051 1.56987 11.2076 1.57238C11.2114 1.57112 11.2165 1.56987 11.2203 1.56987C11.2254 1.56987 11.2305 1.57238 11.233 1.57238C11.2521 1.57238 11.2521 1.54838 11.2724 1.54838C11.28 1.54838 11.2774 1.54966 11.2825 1.55473C11.2825 1.55598 11.2812 1.55851 11.28 1.56105C11.28 1.56105 11.2901 1.56483 11.2901 1.59136C11.2901 1.59768 11.2863 1.60274 11.2863 1.60778L11.2867 1.60937C11.2765 1.59239 11.263 1.57329 11.2558 1.56609C11.2533 1.56862 11.252 1.56987 11.252 1.56987L11.2533 1.57112L11.2799 1.61786C11.2825 1.63049 11.2875 1.63934 11.2952 1.64441C11.2977 1.64313 11.3002 1.6406 11.3002 1.63809C11.3002 1.63408 11.2953 1.62401 11.2885 1.61248L11.2913 1.6141C11.3015 1.6141 11.3053 1.59389 11.3104 1.59389C11.3193 1.59389 11.346 1.60781 11.3523 1.60781C11.3802 1.60781 11.3815 1.59264 11.3917 1.59264C11.3942 1.59264 11.398 1.59517 11.4005 1.59517L11.4031 1.59139C11.4031 1.58885 11.4018 1.58632 11.4018 1.58507C11.4018 1.57881 11.4196 1.58006 11.4196 1.57121Z" fill="#111827"/>
<path d="M8.36816 1.96711C8.26036 1.92403 8.13724 1.92695 8.01108 1.90282C8.12527 1.93201 8.2513 1.96235 8.36816 1.96711Z" fill="#111827"/>
<path d="M9.33024 2.2695C9.33024 2.03511 9.40877 1.87883 9.33024 1.64438C9.48728 1.64438 9.40877 1.48813 9.48728 1.41C9.52197 1.23737 9.52591 1.04953 9.47898 0.880103C9.40304 1.04073 9.32196 1.32636 9.09468 1.17556C8.70208 0.863014 8.54503 0.394158 8.07387 0.159744C8.46653 0.550415 8.87185 1.09935 8.78059 1.64438C8.73603 1.91042 8.56509 1.97513 8.36816 1.96711C8.43372 1.9933 8.4936 2.03645 8.54503 2.11324C8.54503 2.11324 8.46653 2.19137 8.38799 2.2695C8.62357 2.19137 8.8591 2.19137 9.09471 2.19137C9.17328 2.19137 9.17328 2.34765 9.25176 2.34765C9.3421 2.36563 9.44491 2.3712 9.55164 2.37485C9.50079 2.30922 9.33024 2.40251 9.33024 2.2695Z" fill="#111827"/>
<path d="M9.01614 0.394157C9.16684 0.544041 9.31746 0.693952 9.46807 0.843863C9.40329 0.645355 9.26417 0.476405 9.01614 0.394157Z" fill="#111827"/>
<path d="M5.71565 0.0359942C5.64123 0.00053432 5.56554 -0.0201181 5.46642 0.0292028C5.55441 0.116767 5.61183 0.0573704 5.71565 0.0359942Z" fill="#111827"/>
<path d="M5.78093 0.0292015C5.7571 0.0292015 5.73554 0.0319014 5.71568 0.0359929C5.79867 0.0755443 5.88006 0.133521 5.99062 0.133521C5.88576 0.133521 5.88576 0.0292015 5.78093 0.0292015Z" fill="#111827"/>
<path d="M6.82924 0.0292015C6.78077 0.0533053 6.74928 0.077437 6.73051 0.101569C6.83333 0.086121 6.93612 0.0632976 7.0389 0.0292015C6.93407 0.0292015 6.93407 0.0292015 6.82924 0.0292015Z" fill="#111827"/>
<path d="M7.70767 5.82988C7.71418 5.83252 7.72803 5.82684 7.73071 5.82036C7.7388 5.80087 7.69777 5.66995 7.65867 5.65383C7.64888 5.64977 7.64102 5.65035 7.63369 5.65873C7.60801 5.72041 7.65648 5.77838 7.70437 5.82854C7.7054 5.82893 7.70644 5.82935 7.70767 5.82988Z" fill="#111827"/>
<path d="M7.64364 5.48799C7.6795 5.50275 7.73102 5.47076 7.75488 5.4502C7.75488 5.4502 7.75488 5.4502 7.75625 5.44694C7.75759 5.44371 7.75242 5.43778 7.74914 5.43642C7.71656 5.423 7.63872 5.46314 7.63601 5.46962C7.63195 5.47934 7.63713 5.48527 7.64364 5.48799Z" fill="#111827"/>
<path d="M6.73051 0.10157C6.51884 0.133412 6.30712 0.133523 6.09539 0.133523C6.4099 0.133523 6.61956 0.133523 6.82921 0.342163C6.74866 0.261975 6.66822 0.181786 6.73051 0.10157Z" fill="#111827"/>
<path d="M0.468262 1.7381C0.463339 1.7487 0.430112 1.75961 0.430112 1.75961L0.419456 1.76123C0.41031 1.76557 0.378677 1.78708 0.371209 1.78822C0.311523 1.79724 0.338206 1.81489 0.325396 1.81681C0.321145 1.81745 0.316586 1.81617 0.31446 1.8165C0.316222 1.82805 0.284813 1.83674 0.272003 1.83866L0.274156 1.83832C0.255753 1.86081 0.232986 1.85441 0.234468 1.86401C0.234748 1.86596 0.234748 1.86596 0.232622 1.8663C0.230469 1.8666 0.225938 1.86532 0.221658 1.86596C0.217379 1.8666 0.218274 1.87239 0.216149 1.8727C0.214023 1.87303 0.21159 1.87142 0.209464 1.87172C0.210359 1.87751 0.187201 1.88297 0.187788 1.88681C0.185662 1.88714 0.168825 1.90546 0.156043 1.90738C0.107041 1.91478 0.123627 1.93791 0.108691 1.94017C0.106566 1.94047 0.104132 1.93889 0.102007 1.93919C0.0870713 1.94145 0.0510471 1.96266 0.0531727 1.96232C0.0254833 1.9665 0.028476 1.97198 0.0263224 1.97229C0.0241968 1.97262 0.0239171 1.9707 0.0217914 1.97101C0.00193337 1.98387 -0.00114323 1.99222 0.000311163 2.00182C0.00176556 2.01145 0.02126 2.01048 0.0215677 2.0124L0.0218474 2.01432C0.107153 2.00143 0.090008 1.96068 0.126256 1.9552L0.123823 1.95358C0.123235 1.94974 0.144548 1.94651 0.14396 1.94264C0.14396 1.94264 0.143653 1.94072 0.141527 1.94103C0.141527 1.94103 0.21282 1.92238 0.210471 1.90696L0.223281 1.90504C0.223001 1.90312 0.220847 1.90343 0.220847 1.90343C0.22026 1.89959 0.283107 1.86841 0.282519 1.86457C0.284673 1.86424 0.289204 1.86555 0.291357 1.86521C0.295609 1.86457 0.297147 1.8604 0.298993 1.85814C0.296839 1.85848 0.294714 1.85878 0.294434 1.85686C0.293539 1.85107 0.318543 1.84336 0.327074 1.84208L0.324948 1.84242L0.335045 1.83702L0.33264 1.8354C0.332332 1.83348 0.334458 1.83315 0.334458 1.83315L0.347268 1.83123C0.34668 1.82739 0.368272 1.82608 0.367405 1.82029C0.367126 1.81837 0.365 1.81867 0.364692 1.81678C0.379628 1.81453 0.418729 1.78497 0.440013 1.78174L0.437608 1.78012C0.437328 1.7782 0.439454 1.77787 0.439454 1.77787L0.452264 1.77595C0.454082 1.77369 0.461745 1.76665 0.463871 1.76629C0.463871 1.76629 0.496818 1.75343 0.495056 1.74188C0.493686 1.73328 0.476764 1.73682 0.468262 1.7381Z" fill="#111827"/>
<path d="M2.9701 4.76998C2.9701 4.76998 2.9701 4.71993 2.9701 4.65989C2.97496 4.66051 2.97975 4.66151 2.98341 4.66432C2.98598 4.66101 2.9913 4.65589 2.9972 4.65513C3.00014 4.65474 3.00181 4.65602 3.00475 4.65566C3.01518 4.60815 3.04097 4.61085 3.04005 4.60353C3.03969 4.60061 3.0349 4.59821 3.03303 4.59546C3.03286 4.59398 3.03395 4.59089 3.03376 4.58942C3.0332 4.58502 3.03115 4.58082 3.02914 4.57662C3.03812 4.56504 3.04086 4.55129 3.05006 4.54118C3.05006 4.54118 3.04066 4.5379 3.03991 4.53203C3.03974 4.53055 3.04103 4.52891 3.04212 4.52579C3.02903 4.51702 3.02016 4.5062 3.0045 4.50071C3.00025 4.50275 2.99454 4.50497 2.98864 4.5057C2.9857 4.50609 2.98109 4.50514 2.97944 4.50389C2.97796 4.50405 2.97815 4.50553 2.97835 4.507C2.97743 4.5116 2.94702 4.51989 2.94982 4.54191C2.94999 4.54338 2.95351 4.54739 2.9539 4.55031C2.95407 4.55179 2.95407 4.55179 2.95278 4.55346C2.94948 4.5509 2.94929 4.54942 2.94487 4.54998C2.94042 4.55054 2.93656 4.55549 2.93693 4.55841C2.93768 4.56429 2.94302 4.55914 2.94431 4.56943C2.9447 4.57236 2.94322 4.57255 2.94176 4.57275C2.94025 4.57294 2.9388 4.57311 2.93735 4.5733C2.93586 4.57347 2.93586 4.57347 2.93606 4.57495C2.93606 4.57495 2.93754 4.57478 2.93771 4.57623C2.93533 4.58099 2.92151 4.5902 2.92006 4.59039C2.91712 4.59075 2.91396 4.58967 2.91248 4.58984C2.91119 4.59151 2.90994 4.59315 2.9101 4.5946C2.91049 4.59752 2.91396 4.60155 2.91547 4.60139C2.91838 4.60103 2.9197 4.59936 2.92263 4.59899C2.92412 4.5988 2.92616 4.60303 2.92655 4.60595C2.92842 4.62062 2.90848 4.61717 2.91016 4.63036C2.91035 4.63184 2.91201 4.63312 2.91368 4.6344C2.92207 4.63679 2.92909 4.64197 2.93818 4.64548L2.89156 4.69187C2.89159 4.76998 2.89159 4.84813 2.9701 4.76998Z" fill="#111827"/>
<path d="M11.5745 0.382384C11.5745 0.391235 11.577 0.397553 11.5821 0.405124C11.5821 0.408909 11.577 0.413975 11.5757 0.420265C11.5808 0.41648 11.5821 0.411414 11.5859 0.408881L11.5986 0.417732L11.5935 0.427836C11.596 0.432902 11.6024 0.432902 11.6049 0.43794C11.61 0.448043 11.61 0.461932 11.6113 0.474568C11.6113 0.477101 11.6062 0.475821 11.6049 0.478382C11.5998 0.487205 11.5998 0.497336 11.5998 0.496056C11.5998 0.512478 11.61 0.518796 11.6163 0.537751C11.6176 0.537751 11.6189 0.536498 11.6214 0.536498C11.6303 0.536498 11.629 0.542816 11.6379 0.542816C11.6646 0.542816 11.6773 0.53018 11.6862 0.511225C11.6862 0.508692 11.6849 0.50744 11.6849 0.504907C11.6849 0.493551 11.6925 0.4847 11.6925 0.468278C11.6925 0.465773 11.6925 0.46324 11.6912 0.459455C11.6925 0.449351 11.6989 0.437995 11.6989 0.425359C11.6989 0.391235 11.6531 0.396301 11.6531 0.374813C11.6531 0.368495 11.657 0.368495 11.662 0.368495C11.6785 0.368495 11.7039 0.350821 11.7039 0.331866C11.7039 0.278815 11.6658 0.248477 11.6481 0.248477C11.6455 0.248477 11.6429 0.249729 11.6417 0.25101V0.249757C11.6417 0.247224 11.6481 0.23584 11.6518 0.23584C11.6645 0.23584 11.6798 0.25101 11.6937 0.254795C11.714 0.254795 11.7153 0.243411 11.7153 0.225737C11.7254 0.221951 11.7331 0.214381 11.7331 0.202997C11.7331 0.197959 11.7318 0.192893 11.7318 0.186575C11.7318 0.185323 11.7343 0.184042 11.7356 0.180257C11.7356 0.176472 11.7229 0.171406 11.7204 0.162555C11.7204 0.161302 11.7217 0.158769 11.7217 0.156237C11.7217 0.151171 11.7115 0.156237 11.7115 0.151171C11.7343 0.146105 11.7407 0.142348 11.7407 0.137282L11.7394 0.133497C11.742 0.129711 11.7458 0.128431 11.747 0.125926C11.7394 0.110757 11.7407 0.0905495 11.7153 0.0905495C11.6912 0.0905495 11.6848 0.112037 11.6848 0.129711C11.6848 0.136029 11.6937 0.139815 11.6937 0.1436L11.69 0.146133C11.6862 0.146133 11.6836 0.141095 11.6811 0.138562C11.6341 0.161302 11.643 0.171406 11.6265 0.171406C11.6227 0.171406 11.6189 0.170153 11.6151 0.16634C11.6052 0.17007 11.5855 0.184682 11.5811 0.185211C11.5815 0.187633 11.5821 0.18972 11.5821 0.191613C11.5821 0.196679 11.5745 0.196679 11.5745 0.200464C11.5745 0.204277 11.577 0.20553 11.577 0.206782C11.577 0.210568 11.5745 0.214353 11.5745 0.216886C11.5745 0.221951 11.5821 0.232027 11.5834 0.23584C11.5707 0.25101 11.5555 0.252262 11.5504 0.275002C11.5542 0.285106 11.558 0.297742 11.5643 0.312911C11.5567 0.316697 11.5555 0.324295 11.5491 0.329333L11.5465 0.354606C11.5491 0.360924 11.5745 0.37228 11.5745 0.382384Z" fill="#111827"/>
<path d="M11.1061 0.557982C11.1061 0.571899 11.1264 0.566833 11.1352 0.575684C11.1378 0.573151 11.1429 0.569366 11.1479 0.569366C11.1505 0.569366 11.1518 0.570619 11.1543 0.570619C11.1683 0.531457 11.1898 0.536495 11.1898 0.530177C11.1898 0.527672 11.186 0.525139 11.1847 0.522606L11.186 0.51754C11.186 0.513755 11.1847 0.509969 11.1835 0.506184C11.1923 0.497333 11.1962 0.485949 11.205 0.478378C11.205 0.478378 11.1974 0.474565 11.1974 0.469527C11.1974 0.468247 11.1987 0.466994 11.2 0.464462C11.1898 0.455638 11.1835 0.445535 11.1708 0.439217C11.167 0.440469 11.1619 0.441749 11.1568 0.441749C11.1543 0.441749 11.1505 0.440469 11.1492 0.439217L11.1479 0.441749C11.1467 0.445535 11.12 0.44932 11.12 0.468275C11.12 0.469555 11.1226 0.473341 11.1226 0.475846L11.1213 0.478378C11.1187 0.475846 11.1187 0.474565 11.1149 0.474565C11.1111 0.474565 11.1073 0.478378 11.1073 0.480883C11.1073 0.485949 11.1124 0.482136 11.1124 0.490987C11.1124 0.49352 11.1111 0.49352 11.1099 0.49352H11.1061L11.1048 0.494772L11.1061 0.496025C11.1035 0.49981 11.0908 0.506128 11.0895 0.506128C11.087 0.506128 11.0845 0.504848 11.0832 0.504848L11.0806 0.508633C11.0806 0.511166 11.0832 0.514952 11.0845 0.514952C11.087 0.514952 11.0883 0.513699 11.0908 0.513699C11.0921 0.513699 11.0934 0.517484 11.0934 0.520017C11.0934 0.532654 11.0769 0.527588 11.0769 0.538972L11.0794 0.542757C11.0883 0.546626 11.0946 0.554197 11.1061 0.557982Z" fill="#111827"/>
<path d="M2.10638 6.48903C2.13726 6.48903 2.16811 6.48914 2.1942 6.49387C2.14453 6.43445 2.10638 6.36353 2.10638 6.25464C2.10638 6.33274 2.10638 6.4109 2.10638 6.48903Z" fill="#111827"/>
<path d="M0.771503 1.0974C0.771503 1.01727 0.709663 0.937161 0.681079 0.86755C0.667346 0.946096 0.659459 1.04165 0.771503 1.0974Z" fill="#111827"/>
<path d="M4.22641 0.237873C4.06939 0.394158 3.91235 0.472286 3.75533 0.550415C4.14793 0.628599 4.22641 0.0815873 4.61907 0.159744C4.41615 0.078971 4.22898 0.0557022 4.05348 0.0722074C4.0852 0.0734043 4.11675 0.0764103 4.14793 0.0815873C4.22641 0.0815873 4.22641 0.159744 4.22641 0.237873Z" fill="#111827"/>
<path d="M6.39041 6.03943C6.33766 6.02958 6.27831 6.02301 6.22553 6.00987C6.21233 5.99671 6.19253 5.98688 6.16945 5.98688C6.15625 5.98688 6.13647 5.99017 6.13647 6.00659C6.13647 6.04926 6.30465 6.07219 6.37721 6.08533C6.39038 6.08533 6.40358 6.07879 6.40358 6.05911C6.40361 6.0558 6.39701 6.04272 6.39041 6.03943Z" fill="#111827"/>
<path d="M5.99797 6.76143C5.99797 6.77129 6.00127 6.77786 6.01118 6.78111C6.07382 6.78111 6.1068 6.71876 6.1332 6.6597V6.65642C6.1332 6.64985 6.1233 6.64 6.1167 6.64C6.09693 6.64 5.99797 6.72202 5.99797 6.76143Z" fill="#111827"/>
<path d="M5.79679 2.81645C5.87533 2.81645 5.87533 2.89461 5.87533 2.97277C5.79679 3.05089 5.79679 3.28531 5.63977 3.28531C5.56124 3.28531 5.56124 3.12905 5.48273 3.12905C5.26669 3.12905 5.05069 3.16601 4.88576 3.08736C4.91042 3.03389 4.85664 3.00372 4.79877 2.97972C4.80392 2.99896 4.80688 3.01944 4.8096 3.0389C4.78118 3.01566 4.75497 2.98724 4.73139 2.95239C4.7512 2.96124 4.77531 2.96998 4.79877 2.97972C4.78647 2.93358 4.76157 2.89461 4.69758 2.89461C4.80739 2.82174 4.88304 2.78283 4.92461 2.73832C4.9274 2.73832 4.93012 2.73832 4.93311 2.73832C4.93311 2.73507 4.93311 2.73181 4.93311 2.72855C4.95945 2.69579 4.96804 2.65853 4.95901 2.60219C4.97059 2.58955 4.98734 2.58207 5.01162 2.58207C5.03917 2.58207 5.06672 2.58212 5.09424 2.58552C5.02566 2.53826 4.97268 2.47844 4.92021 2.40605C4.89624 2.31217 4.83902 2.2194 4.75299 2.16298C4.61004 2.01691 4.30017 2.17052 4.23139 2.07026C4.22834 2.05871 4.22638 2.04694 4.22638 2.03511C4.22638 1.88158 4.30218 1.80329 4.37929 1.6524C4.40961 1.67706 4.43912 1.6998 4.46197 1.72254L4.38343 1.64438C4.37845 1.64438 4.37378 1.64408 4.36897 1.64391C4.29818 1.58554 4.22638 1.51563 4.22638 1.40997C4.2096 1.40997 4.19251 1.40952 4.17517 1.40875C4.30025 1.29396 4.4359 1.13219 4.61904 1.25368C4.61904 1.18641 4.61918 1.11928 4.66925 1.10185C4.69305 1.15991 4.72986 1.2121 4.77673 1.24945C4.77925 1.29441 4.79184 1.33181 4.85457 1.33181C4.85217 1.33663 4.84965 1.34119 4.8471 1.34556C4.86492 1.34086 4.88469 1.33774 4.9048 1.33571C4.86489 1.32639 4.83449 1.30353 4.80979 1.27231C4.81527 1.27553 4.82084 1.27862 4.82655 1.28146C5.0621 1.35959 5.29766 1.35959 5.37617 1.04702C5.38819 0.999008 5.41647 0.980443 5.4356 0.953445C5.46225 1.03895 5.45034 1.13008 5.38615 1.21335C5.44052 1.1885 5.50661 1.17993 5.56314 1.17706C5.61902 1.22944 5.71831 1.17472 5.71831 1.0974C5.71831 1.02804 5.65644 0.958817 5.58761 0.94412C5.65177 0.918402 5.71831 0.898975 5.71831 0.863014C5.56929 0.714689 5.27881 0.636811 5.04823 0.629268C4.97601 0.622616 4.90131 0.631606 4.82657 0.656406C4.74804 0.656406 4.66956 0.734534 4.66956 0.812663C4.65073 0.850127 4.64103 0.892072 4.63915 0.935269C4.61337 0.902593 4.58184 0.876708 4.54053 0.863014L4.46202 0.941142L4.38349 0.863014C4.25863 1.04936 4.23293 1.33429 4.10933 1.40407C3.88253 1.38216 3.62315 1.30053 3.41766 1.18059C3.31515 1.10611 3.23432 1.00538 3.20571 0.863014L3.1312 0.937162C3.07901 0.865073 3.04869 0.787585 3.04869 0.706756C3.06019 0.661026 3.082 0.613625 3.11193 0.566281C3.265 0.433014 3.581 0.345617 3.71598 0.15351C3.82408 0.112093 3.93621 0.0832857 4.05354 0.0722636C3.94879 0.0682278 3.84206 0.0848444 3.73902 0.116435C3.74512 0.105191 3.7506 0.0935841 3.75539 0.0816435C3.73153 0.099457 3.70767 0.117243 3.68378 0.135056C3.50629 0.199435 3.34351 0.30626 3.22587 0.425276C3.33963 0.346507 3.4562 0.273444 3.57736 0.214103C3.43626 0.318479 3.29216 0.422882 3.13825 0.527258C3.16339 0.492744 3.19293 0.458565 3.22585 0.425248C3.05809 0.541397 2.89631 0.669905 2.7346 0.784885C2.7346 0.702359 2.70537 0.678032 2.66412 0.674219C2.65922 0.659412 2.65609 0.64402 2.65609 0.628628C2.58804 0.628628 2.50525 0.628628 2.42053 0.628628C2.34197 0.550443 2.18495 0.628628 2.0279 0.628628C2.06317 0.698824 2.14596 0.721731 2.21938 0.74692C2.27781 0.789589 2.33632 0.827025 2.35302 0.893881C2.35125 0.908132 2.34784 0.923691 2.34197 0.941198C2.34197 1.01933 2.26346 1.09746 2.18495 1.01933C2.11385 0.877821 2.02119 0.772109 1.91362 0.697488C1.89787 0.676028 1.8833 0.653399 1.87086 0.628656C1.83245 0.552169 1.75641 0.569259 1.6796 0.588325C1.61964 0.571652 1.55721 0.561632 1.49308 0.557624C1.48802 0.555231 1.48307 0.552865 1.47828 0.550471C1.47946 0.552781 1.48074 0.55473 1.48197 0.556873C1.33002 0.549079 1.16858 0.575076 1.00714 0.628656L1.02695 0.648362C0.981747 0.671964 0.935291 0.698128 0.878765 0.705031C0.853201 0.695846 0.818659 0.695066 0.77156 0.706784L0.771028 0.706979C0.812562 0.704363 0.8619 0.732753 0.909951 0.755994C0.926508 0.777509 0.93806 0.802309 0.947205 0.828723C0.95196 0.901535 0.937528 0.983449 0.955316 1.01482C0.954589 1.01807 0.954338 1.02127 0.954785 1.02434C0.955093 1.02626 0.955372 1.02818 0.957806 1.02979C0.961749 1.02826 0.963679 1.02698 0.964994 1.0252C0.974196 1.03027 0.987649 1.02904 1.00712 1.01933V1.01899C1.01523 1.03427 1.02479 1.04858 1.03673 1.0613C1.0369 1.06305 1.03489 1.06339 1.03489 1.06339C1.03517 1.06531 1.0376 1.06692 1.03973 1.06659L1.0404 1.06483C1.0529 1.07742 1.06764 1.08847 1.08562 1.0974C1.06154 1.13734 1.02121 1.1691 0.980153 1.20456C0.977356 1.20077 0.974391 1.19585 0.972462 1.18315C0.971511 1.1912 0.967847 1.19568 0.968714 1.20147C0.968993 1.20322 0.971231 1.20645 0.972322 1.21138C0.968546 1.21469 0.964798 1.218 0.96105 1.22137C0.955512 1.22023 0.952212 1.21575 0.947038 1.21655C0.938815 1.21976 0.937248 1.22393 0.936018 1.23003C0.931151 1.22683 0.9269 1.22747 0.922621 1.22811C0.923516 1.2339 0.923795 1.23579 0.928662 1.23902C0.929249 1.24286 0.906986 1.2541 0.896302 1.25572C0.88352 1.25767 0.854935 1.19894 0.831497 1.20247C0.834434 1.2217 0.857872 1.21817 0.858739 1.22393L0.856921 1.22619C0.865452 1.2249 0.869563 1.25185 0.869256 1.24993C0.871381 1.24962 0.873227 1.24737 0.873227 1.24737C0.874849 1.25794 0.876639 1.26262 0.884107 1.26148C0.884694 1.26535 0.880611 1.28171 0.872108 1.28299C0.867857 1.28366 0.86299 1.28043 0.856586 1.28141C0.850181 1.28238 0.846824 1.28878 0.847691 1.29457C0.848279 1.29841 0.850432 1.29811 0.854684 1.29747C0.85102 1.30198 0.846405 1.31447 0.842098 1.31514C0.837874 1.31578 0.830574 1.31099 0.825987 1.30969L0.826575 1.31355C0.822295 1.31419 0.813178 1.31163 0.806801 1.31258C0.802549 1.31322 0.800983 1.3174 0.79676 1.31804C0.790355 1.31901 0.778496 1.31291 0.778216 1.31099C0.778216 1.31099 0.782188 1.30843 0.790718 1.30713C0.789823 1.30134 0.784985 1.29813 0.784118 1.29237C0.775559 1.29365 0.774328 1.29975 0.77307 1.30584C0.768203 1.30264 0.766078 1.30295 0.759673 1.30392C0.772678 1.31773 0.780817 1.32831 0.810688 1.3238L0.80887 1.32605C0.809737 1.33184 0.824953 1.33151 0.825848 1.33727C0.813066 1.33922 0.810185 1.36329 0.799529 1.36491L0.795305 1.36555C0.793152 1.36588 0.795893 1.36939 0.794047 1.37164C0.79097 1.37999 0.780594 1.38353 0.782076 1.39313C0.783251 1.40084 0.788705 1.40791 0.790159 1.41751C0.791222 1.41737 0.773993 1.42586 0.775727 1.43741C0.776314 1.44128 0.780873 1.44254 0.781181 1.44448C0.781461 1.4464 0.774133 1.45539 0.775307 1.4631C0.775307 1.4631 0.777433 1.4628 0.781712 1.46213C0.785964 1.46149 0.792369 1.46052 0.797207 1.46372C0.793208 1.46628 0.793208 1.46628 0.793543 1.46823C0.793823 1.47015 0.811499 1.47143 0.811779 1.47335C0.813541 1.4849 0.805318 1.48813 0.803165 1.48843C0.798913 1.4891 0.792201 1.48813 0.790075 1.48843C0.781545 1.48971 0.784257 1.49325 0.782132 1.49358C0.786411 1.49294 0.790942 1.49422 0.793403 1.49584C0.792816 1.492 0.792816 1.492 0.799193 1.49102C0.828169 1.48665 0.830882 1.49748 0.841482 1.50138C0.842181 1.51098 0.843216 1.52089 0.844587 1.5311C0.820533 1.55081 0.766581 1.54872 0.768986 1.56456L0.770469 1.57419C0.770469 1.57419 0.770776 1.57611 0.768623 1.57644L0.766217 1.57483C0.766945 1.57964 0.748765 1.5893 0.74801 1.59139C0.745884 1.59169 0.742388 1.59025 0.742388 1.59025C0.742667 1.59217 0.742975 1.59412 0.741129 1.59634C0.739004 1.59668 0.73657 1.59506 0.734445 1.5954C0.699092 1.60664 0.668214 1.63297 0.666088 1.63331C0.666983 1.6391 0.669416 1.64068 0.673668 1.64004C0.741884 1.62972 0.714335 1.60631 0.739899 1.60244C0.742052 1.6021 0.746611 1.60339 0.748709 1.60308C0.761519 1.60116 0.740262 1.59055 0.782915 1.58412C0.787166 1.58348 0.791725 1.58474 0.793851 1.58443C0.79813 1.58379 0.797823 1.58187 0.797515 1.57992C0.797823 1.58184 0.823414 1.578 0.828253 1.58117C0.819722 1.58245 0.820897 1.59016 0.820897 1.59016C0.826575 1.58321 0.839524 1.57288 0.849034 1.56793C0.840196 1.58129 0.833175 1.59414 0.827749 1.60656L0.827498 1.60494C0.823218 1.60558 0.821093 1.60592 0.8214 1.60784C0.821596 1.60926 0.823302 1.61071 0.82554 1.61193C0.792536 1.69365 0.830071 1.75497 0.886037 1.80885L0.885086 1.811L0.887491 1.81261C0.857648 1.81712 0.85941 1.8287 0.859718 1.83059C0.857564 1.83092 0.853006 1.82964 0.853006 1.82964C0.853593 1.83348 0.841678 1.84119 0.843132 1.85082C0.847412 1.85018 0.847719 1.85211 0.848586 1.85787C0.876528 1.84189 0.892833 1.83109 0.902091 1.82377C0.925529 1.8447 0.950981 1.86466 0.975398 1.88448C1.0199 1.96789 1.07718 2.06236 1.14948 2.16963C1.16335 2.20267 1.17518 2.23568 1.18354 2.26869C1.18346 2.27234 1.18329 2.27601 1.18304 2.27971C1.16069 2.34181 1.15306 2.41587 1.16411 2.50385C1.17907 2.4741 1.1883 2.44435 1.19291 2.41459C1.32714 2.35603 1.2545 2.26379 1.23185 2.18889C1.32456 2.06506 1.49554 2.00906 1.68366 1.99047C1.86873 1.99918 2.0566 2.0593 2.22467 2.10325C2.18523 2.11316 2.14579 2.11316 2.10636 2.11316C2.26337 2.11316 2.34188 2.19128 2.34188 2.34757C2.34188 2.34473 2.34208 2.34223 2.34214 2.33947C2.3432 2.3216 2.34739 2.30048 2.35162 2.2784C2.37178 2.21942 2.42095 2.20757 2.47541 2.20025C2.57604 2.21684 2.67519 2.23637 2.77306 2.25873C2.81258 2.30799 2.85207 2.34754 2.89156 2.34754C3.04861 2.34754 3.28416 2.4257 3.44118 2.50383C3.83381 2.58198 4.22638 2.81637 4.61901 3.05081C4.61901 3.02387 4.6191 2.99701 4.62232 2.97329C4.68603 3.00469 4.74991 3.03645 4.81393 3.06843C4.81975 3.103 4.8285 3.12894 4.8546 3.12894C4.86472 3.11886 4.87247 3.10946 4.87832 3.10061C5.00026 3.16167 5.12305 3.22343 5.24717 3.2852C5.24717 3.36333 5.01162 3.2852 5.01162 3.44148C4.69755 3.20707 4.30489 3.12894 3.91232 2.97265C3.91232 3.05078 3.91232 3.12894 3.83381 3.12894C3.51969 3.12894 3.29692 2.89453 3.04861 2.89453C2.81305 2.89453 2.81305 2.73824 2.73454 2.81637C2.59251 3.00483 2.62188 3.19329 2.71913 3.38178C2.69248 3.33274 2.63503 3.30613 2.57752 3.36335C2.57752 3.36335 2.57752 3.44151 2.57752 3.51967C2.57752 3.44151 2.57752 3.36335 2.65606 3.36335L2.73457 3.44151C2.73457 3.42233 2.72982 3.40318 2.72154 3.38632C2.7855 3.5089 2.87774 3.6315 2.97015 3.75408C3.12717 3.98852 3.36273 3.75408 3.67685 3.91037C3.67685 3.98852 3.67685 4.06668 3.59828 4.14481C3.67685 4.06668 3.75536 3.98852 3.83387 3.91037C4.14793 3.83224 4.462 3.91037 4.69761 4.22294C4.69761 4.14478 4.77612 4.14478 4.85465 4.14478C5.09018 4.30104 5.16872 4.53545 5.16872 4.69176C5.16872 4.80093 5.13801 4.90397 5.08699 5.00097C5.06669 5.02513 5.04697 5.04995 5.02764 5.07536L5.0786 5.01616C5.03181 5.10103 4.96969 5.18116 4.89913 5.25653C4.9415 5.19435 4.98354 5.1334 5.02764 5.07536L4.74163 5.40742C4.64942 5.48791 4.55245 5.56195 4.462 5.62945C4.14793 5.94202 3.75533 6.17643 3.3627 6.48897C3.3627 6.48897 3.28419 6.41084 3.28419 6.33272C2.97013 6.56716 2.57752 6.72339 2.2634 6.56716L2.18489 6.64529C2.34191 6.87973 2.73454 6.87973 2.89159 6.80157C3.59437 6.7316 4.10858 6.34886 4.77178 6.1572C4.76658 6.1774 4.76336 6.20593 4.76132 6.21991C4.76132 6.22316 4.76132 6.22645 4.76462 6.22645C4.77318 6.22645 4.78168 6.17802 4.78689 6.1528C4.85437 6.13365 4.92346 6.11659 4.99439 6.102C4.98921 6.10966 4.9799 6.11072 4.96908 6.12146C4.97895 6.12146 4.99875 6.12146 4.99875 6.13457C4.99875 6.14114 4.99218 6.14773 4.99218 6.15428C4.99218 6.16903 5.02515 6.15099 5.02515 6.17727C5.02515 6.19366 4.85695 6.25272 4.85695 6.25929C4.85695 6.26258 4.86025 6.26583 4.86355 6.26583C4.9163 6.26583 4.98555 6.20349 5.01853 6.20349C5.0548 6.20349 5.04163 6.2363 5.068 6.25272C5.03833 6.28885 4.9427 6.34134 4.9394 6.3512C4.9394 6.36105 4.9427 6.36431 4.9493 6.36762C4.97238 6.36762 5.00043 6.32656 5.04493 6.31507C5.14055 6.29046 5.25598 6.24454 5.27246 6.24287C5.28893 6.24287 5.30873 6.24613 5.32193 6.25272C5.32193 6.27733 5.31863 6.29536 5.31863 6.32821C5.32853 6.28228 5.31533 6.24947 5.36151 6.24947C5.39944 6.24947 5.44559 6.31838 5.45714 6.34134C5.47526 6.37747 5.53131 6.40369 5.52969 6.40369C5.52969 6.40369 5.53299 6.40041 5.53299 6.39715C5.53299 6.39058 5.51979 6.3873 5.51319 6.37747C5.49338 6.31181 5.41093 6.2987 5.41093 6.1904C5.41093 6.08867 5.45711 6.02301 5.48678 5.94099C5.50986 5.94424 5.55273 5.9541 5.55273 5.96723C5.54613 5.96723 5.51646 5.98034 5.51646 5.98688C5.51646 5.99017 5.51976 5.99017 5.51976 5.99017C5.53956 5.98688 5.55276 5.97049 5.56924 5.97049C5.56924 5.9836 5.57581 5.98688 5.57581 6.00002C5.57581 6.01973 5.56264 6.03612 5.55273 6.05254C5.57911 6.05254 5.58571 6.06732 5.60221 6.07879C5.60881 6.07551 5.62199 6.06565 5.63519 6.06565C5.64179 6.06565 5.65499 6.06565 5.65499 6.07551C5.65499 6.07879 5.65169 6.08208 5.65169 6.08867C5.65169 6.09193 5.65499 6.09852 5.66159 6.09852C5.67479 6.09852 5.67479 6.07553 5.69457 6.07553C5.70114 6.07882 5.70777 6.09196 5.71764 6.09196C5.72751 6.09196 5.73414 6.07553 5.74402 6.07553C5.75062 6.07882 5.76382 6.08539 5.77372 6.08539C5.78029 6.08539 5.78689 6.07553 5.78689 6.06571C5.78689 6.06242 5.78359 6.05586 5.78359 6.05257C5.78359 6.046 5.79677 6.03946 5.80007 6.03946C5.80667 6.03946 5.80997 6.04932 5.81327 6.04932C5.81657 6.04932 5.81657 6.046 5.81657 6.04275C5.81657 6.03618 5.80667 6.02632 5.80667 6.0165C5.80667 6.00996 5.81327 6.00008 5.81657 6.00008C5.82977 6.00008 5.82977 6.02307 5.83967 6.02307L5.84297 6.01978C5.84297 6.00993 5.83637 5.99679 5.83637 5.98694C5.83637 5.96729 5.88585 5.95412 5.90892 5.95412C5.95507 5.95412 5.97487 5.98037 6.01445 5.98037C6.01775 5.98037 6.02435 5.9738 6.02762 5.97052C6.02762 5.93113 5.89902 5.95741 5.87595 5.8819C5.87595 5.87864 5.86109 5.88023 5.86109 5.87533C5.86109 5.87533 5.86109 5.87369 5.86274 5.87207C5.86274 5.85893 5.85947 5.85237 5.85947 5.84251C5.86274 5.83266 5.86937 5.81955 5.87595 5.8097C5.87265 5.80638 5.85947 5.79984 5.85947 5.79653C5.85947 5.78668 5.86274 5.77685 5.86274 5.767C5.86274 5.73747 5.82977 5.73747 5.82977 5.69808C5.81987 5.70462 5.80669 5.70794 5.80009 5.70794C5.76052 5.70794 5.74404 5.67181 5.72424 5.67181C5.71434 5.67181 5.71434 5.68166 5.69127 5.68166C5.68467 5.67838 5.67146 5.67181 5.66489 5.67181C5.65499 5.67181 5.63852 5.70462 5.61874 5.70462C5.61544 5.69808 5.60554 5.69477 5.60227 5.69477C5.57917 5.69477 5.61049 5.74401 5.54619 5.74401C5.53959 5.74401 5.52972 5.74729 5.52972 5.75715C5.52972 5.76369 5.53302 5.77683 5.53302 5.78011C5.51982 5.78339 5.51321 5.79982 5.51321 5.80633C5.51321 5.82275 5.53629 5.83589 5.54289 5.85228C5.53299 5.87524 5.51651 5.89492 5.49674 5.90152C5.49014 5.89495 5.48354 5.8851 5.48354 5.87858C5.48354 5.87527 5.48684 5.87202 5.48684 5.86873C5.48684 5.85888 5.47034 5.85228 5.46704 5.85228C5.45714 5.85228 5.44726 5.86542 5.43736 5.86873V5.85228C5.42746 5.85228 5.42581 5.85721 5.42086 5.86542C5.41426 5.85888 5.40439 5.85888 5.39779 5.85888C5.39133 5.85888 5.38526 5.86069 5.37961 5.86303C5.57259 5.64879 5.72399 5.33347 5.87533 5.08246C5.87533 4.92618 5.87533 4.69176 5.9539 4.53548L6.03243 4.61363C6.03243 4.53548 6.03243 4.45735 5.9539 4.45735L5.87533 4.53548C5.63977 4.37922 6.0324 4.14481 5.79679 3.98852C6.11091 3.59782 6.18942 3.2071 6.18942 2.73827C6.11091 2.73827 6.0324 2.73827 6.0324 2.66014C6.0324 2.50385 6.26796 2.66014 6.26796 2.50385C6.34647 2.58201 6.34647 2.66014 6.34647 2.73827C6.50352 2.66014 6.42501 2.42573 6.58202 2.34757C6.66053 2.34757 6.81764 2.34757 6.89612 2.34757C6.50352 2.19134 6.11094 2.50391 5.79679 2.81645ZM5.47067 1.04326C5.47258 1.08607 5.51439 1.12885 5.55735 1.17166C5.51428 1.16501 5.48273 1.14692 5.48273 1.0974C5.47238 1.0768 5.469 1.05896 5.47067 1.04326ZM5.16866 0.941142C5.2472 1.01927 5.16866 1.0974 5.09013 1.17556C5.03461 1.23081 4.93308 1.17556 4.93308 1.0974C5.09015 1.17553 5.09015 0.862986 5.16866 0.941142ZM4.95903 0.81514C4.99453 0.793402 5.04009 0.834317 5.03044 0.874648C4.95904 0.81514 4.92044 0.976435 4.88956 0.926502C4.85868 0.876596 4.90886 0.845868 4.95903 0.81514ZM1.3468 1.09609C1.35393 1.0893 1.35852 1.08348 1.3579 1.07959C1.3555 1.07797 1.35365 1.08023 1.35334 1.07831C1.35276 1.07446 1.3579 1.07959 1.35673 1.0719C1.35555 1.06419 1.34431 1.06197 1.33791 1.06291C1.32428 1.07956 1.31212 1.09311 1.30132 1.10444C1.25923 1.10859 1.22326 1.10082 1.21037 1.07176C1.23078 1.12284 0.982279 0.748868 1.13169 0.789951C1.29816 0.835709 1.22488 0.697933 1.32048 0.697933C1.41605 0.697933 1.49353 0.83724 1.49353 1.00911C1.49358 1.03477 1.41974 1.07733 1.3468 1.09609Z" fill="#111827"/>
<path d="M5.2472 1.33184C5.308 1.29552 5.35373 1.25544 5.38612 1.21338C5.36341 1.22376 5.34266 1.23684 5.32568 1.25371L5.2472 1.33184Z" fill="#111827"/>
<path d="M4.80431 1.43777C4.87443 1.50563 4.95182 1.56622 5.09013 1.56622C4.99987 1.56622 4.90956 1.48879 4.80431 1.43777Z" fill="#111827"/>
<path d="M4.54048 1.40997C4.59437 1.40997 4.68519 1.44671 4.76227 1.41935C4.69571 1.3936 4.62293 1.38263 4.54048 1.40997Z" fill="#111827"/>
<path d="M5.09426 2.58552C5.1377 2.61544 5.18737 2.64038 5.2472 2.66022C5.19621 2.60948 5.14522 2.59175 5.09426 2.58552Z" fill="#111827"/>
<path d="M1.55676 2.42578C1.63527 2.42578 1.79232 2.42578 1.87083 2.50391C2.02787 2.66019 2.18489 2.66019 2.34194 2.81645C2.4205 2.73832 2.18492 2.66019 2.34194 2.58206C2.02785 2.58206 1.8708 2.34762 1.55676 2.42578Z" fill="#111827"/>
<path d="M1.59114 2.9815L1.59156 2.98429C1.59357 2.98827 1.59595 2.99005 1.59707 2.99225C1.60353 3.00502 1.60395 3.02303 1.60414 3.0235C1.60968 3.05167 1.60389 3.06422 1.60795 3.07216C1.61418 3.08449 1.61077 3.10074 1.61211 3.10341C1.61813 3.11533 1.6127 3.12568 1.61516 3.13055C1.61357 3.13698 1.61611 3.14873 1.61681 3.15003C1.61385 3.15257 1.6193 3.1868 1.61872 3.18972L1.61927 3.19034C1.62062 3.19298 1.61902 3.20322 1.62126 3.20762C1.62257 3.21027 1.62428 3.21071 1.62607 3.21233C1.62834 3.21102 1.63125 3.21105 1.63292 3.20957C1.63868 3.20462 1.6348 3.18833 1.63513 3.18805C1.63035 3.17002 1.63418 3.16796 1.63197 3.16356C1.63432 3.16153 1.63315 3.14291 1.63281 3.14322C1.63569 3.1249 1.63379 3.11638 1.63178 3.11243C1.63043 3.10979 1.62909 3.10904 1.62887 3.10859C1.62551 3.09818 1.62448 3.075 1.6247 3.07547C1.62148 3.06241 1.62713 3.05056 1.62445 3.0453L1.62243 3.04324C1.62574 3.03725 1.62171 3.0274 1.62534 3.01922C1.63824 2.99099 1.62481 3.0019 1.63427 2.99378C1.63832 2.99027 1.64148 2.99072 1.64305 2.9938C1.64369 2.99514 1.64392 2.99748 1.64481 2.99923C1.64548 3.00057 1.64752 3.00071 1.64906 3.0019C1.65382 2.99781 1.65149 2.98081 1.6513 2.97655C1.65253 2.9761 1.65435 2.9739 1.65524 2.97569L1.6612 2.96928C1.66235 2.97148 1.66618 2.96564 1.6673 2.96786C1.66979 2.96508 1.67216 2.96305 1.67454 2.96102C1.67723 2.95871 1.6805 2.95651 1.68399 2.95475C1.68288 2.95256 1.68931 2.94894 1.68797 2.94627C1.69272 2.9422 1.68867 2.93427 1.69311 2.93046C1.69748 2.92667 1.70254 2.92611 1.70592 2.92319C1.70726 2.92202 1.70875 2.92013 1.71043 2.91868C1.71616 2.92517 1.73213 2.92216 1.73316 2.9213C1.73451 2.92394 1.74642 2.92444 1.74788 2.92447L1.74947 2.92375L1.74972 2.92038C1.74813 2.91732 1.73137 2.91779 1.73137 2.91779C1.72922 2.91838 1.70508 2.91195 1.70444 2.91061C1.70329 2.90841 1.70478 2.90463 1.70612 2.90346C1.70987 2.90026 1.71826 2.90822 1.72131 2.90557L1.72268 2.90062C1.72024 2.89578 1.70928 2.90009 1.70771 2.89703C1.70875 2.89614 1.70707 2.88999 1.71045 2.88706C1.71484 2.88328 1.72441 2.88773 1.72631 2.8867C1.72768 2.88553 1.7307 2.88292 1.72916 2.87983C1.72757 2.87674 1.71935 2.88063 1.71037 2.88205C1.70891 2.87632 1.71297 2.87095 1.7045 2.85419C1.70226 2.84979 1.70215 2.85052 1.69991 2.84801L1.6989 2.84509L1.69697 2.84423C1.68738 2.82527 1.68892 2.83599 1.68623 2.83067C1.68578 2.82978 1.68559 2.82936 1.68377 2.82961L1.68246 2.82505C1.68134 2.82285 1.68055 2.82419 1.67918 2.82533L1.66268 2.82054L1.66291 2.82099C1.6603 2.82068 1.65659 2.82196 1.65505 2.81887C1.6539 2.81667 1.65482 2.81464 1.65482 2.81464C1.6537 2.81244 1.65144 2.81375 1.65043 2.81464C1.65063 2.81887 1.64545 2.82207 1.64333 2.82455C1.64176 2.82146 1.63703 2.82555 1.6339 2.81937L1.6341 2.8179C1.62864 2.81186 1.62095 2.81784 1.61961 2.81517C1.61827 2.81253 1.62006 2.81414 1.61916 2.81236L1.61656 2.81587C1.61569 2.81411 1.61284 2.81715 1.61161 2.81762C1.61295 2.82026 1.61139 2.82099 1.60968 2.82243C1.60742 2.82374 1.60439 2.82255 1.6035 2.82079C1.60193 2.8177 1.60227 2.81361 1.60163 2.81035C1.59754 2.81386 1.60135 2.81943 1.59863 2.82177L1.59517 2.82352C1.59016 2.80693 1.5922 2.79947 1.5922 2.79947C1.59164 2.79741 1.59075 2.79563 1.59019 2.7936C1.5851 2.79797 1.59396 2.81253 1.58954 2.81631C1.58932 2.82349 1.58661 2.82772 1.58445 2.8302C1.58333 2.828 1.58269 2.82859 1.58199 2.82725C1.57973 2.83048 1.58115 2.83426 1.57883 2.83632C1.56868 2.84506 1.56739 2.82335 1.56401 2.82627L1.56269 2.82171C1.55931 2.81509 1.55509 2.80863 1.55193 2.80245C1.54958 2.80448 1.55316 2.80585 1.55148 2.80729C1.55503 2.81433 1.55897 2.8211 1.56286 2.82786C1.55911 2.83106 1.55623 2.82344 1.55318 2.82605C1.55081 2.82808 1.55237 2.83117 1.55036 2.83293L1.55092 2.83309C1.55181 2.83485 1.54748 2.85313 1.54748 2.85313C1.53665 2.86246 1.55232 2.88567 1.5503 2.89127C1.55274 2.89611 1.55475 2.9058 1.55271 2.90947L1.55693 2.91974L1.55853 2.92091C1.56613 2.93591 1.56171 2.9454 1.56194 2.94585L1.56823 2.94866C1.56924 2.95158 1.56999 2.95409 1.57134 2.95676C1.57315 2.96027 1.57539 2.96277 1.57718 2.96631C1.57875 2.96939 1.57838 2.97349 1.5795 2.97569C1.58124 2.97925 1.58554 2.97429 1.59114 2.9815Z" fill="#111827"/>
<path d="M2.49901 2.34762C2.43119 2.34762 2.42185 2.40582 2.36996 2.42171C2.42504 2.43352 2.47398 2.42233 2.49901 2.34762Z" fill="#111827"/>
<path d="M2.24466 2.37409C2.16864 2.34097 2.10638 2.3214 2.10638 2.42578C2.10638 2.47755 2.1753 2.39218 2.24466 2.37409Z" fill="#111827"/>
<path d="M1.32115 3.05089C1.32115 3.12905 1.39972 3.12905 1.39972 3.20715C1.39972 3.12905 1.39972 3.05089 1.32115 3.05089Z" fill="#111827"/>
</g>
<defs>
<clipPath id="clip0_2_158">
<rect width="12" height="6.88884" fill="white"/>
</clipPath>
</defs>
</svg>
