<svg width="512" height="512" viewBox="0 0 512 512" fill="none" xmlns="http://www.w3.org/2000/svg">
<circle cx="256" cy="256" r="256" fill="white"/>
<path d="M152.456 318.728C152.456 317.893 152.456 317.11 152.456 316.352C152.574 316.418 152.66 316.51 152.896 316.481C154.069 316.332 154.558 315.707 154.842 314.824C154.828 314.713 154.765 314.665 154.751 314.553C154.687 314.052 154.973 313.622 154.88 312.9C154.865 312.789 154.852 312.678 154.775 312.518C154.774 312.066 154.991 311.531 154.92 310.975C154.729 309.475 152.744 309.95 152.624 309.006C152.589 308.728 152.756 308.707 152.98 308.678C153.706 308.586 154.724 307.668 154.618 306.834C154.32 304.5 152.474 303.378 151.691 303.476C151.58 303.49 151.475 303.559 151.426 303.623C151.426 303.623 151.426 303.623 151.419 303.567C151.405 303.456 151.62 302.92 151.788 302.899C152.347 302.829 153.102 303.411 153.738 303.5C154.632 303.388 154.625 302.88 154.525 302.102C154.951 301.879 155.244 301.503 155.18 301.003C155.152 300.781 155.068 300.566 155.032 300.288C155.025 300.232 155.131 300.163 155.164 299.989C155.143 299.822 154.557 299.67 154.395 299.295C154.388 299.239 154.43 299.121 154.416 299.009C154.388 298.787 153.969 299.066 153.941 298.844C154.917 298.495 155.176 298.293 155.148 298.071C155.14 298.016 155.079 297.967 155.071 297.911C155.161 297.731 155.321 297.654 155.364 297.536C154.944 296.912 154.886 296.015 153.769 296.157C152.707 296.29 152.548 297.27 152.647 298.048C152.683 298.326 153.094 298.444 153.117 298.611C153.123 298.665 152.963 298.742 152.963 298.742C152.795 298.763 152.655 298.555 152.529 298.458C150.588 299.719 151.037 300.114 150.311 300.206C150.143 300.227 149.969 300.193 149.779 300.048C149.36 300.267 148.577 301.018 148.39 301.066C148.42 301.171 148.457 301.258 148.469 301.342C148.496 301.564 148.161 301.606 148.182 301.773C148.204 301.941 148.323 301.982 148.33 302.037C148.352 302.203 148.261 302.385 148.274 302.497C148.302 302.718 148.694 303.12 148.772 303.28C148.298 304.018 147.635 304.157 147.538 305.186C147.763 305.61 148.002 306.144 148.366 306.776C148.052 306.985 148.039 307.325 147.788 307.583L147.817 308.708C147.965 308.971 149.146 309.331 149.202 309.775C149.252 310.164 149.4 310.428 149.666 310.732C149.687 310.899 149.492 311.15 149.472 311.435C149.674 311.24 149.701 311.011 149.855 310.878L150.025 310.968C148.933 315.525 152.456 320.084 152.456 324.641C153.448 322.67 153.117 320.699 152.456 318.728Z" fill="#111827"/>
<path d="M348.954 369.05C350.248 366.478 350.416 364.462 350.194 362.522C350.694 362.329 351.222 362.089 352.059 362.432C351.966 361.962 352.046 361.418 352.148 361.172C352.763 359.698 354.379 359.644 354.686 358.906C354.841 358.536 354.468 358.385 354.828 357.523C355.054 357.328 355.506 356.938 355.607 356.692C355.761 356.323 354.781 355.199 355.088 354.463C355.386 354.441 355.664 354.125 355.716 354.001C356.074 353.141 353.734 353.545 354.73 351.149C354.833 350.902 354.864 350.481 354.493 350.329C354.245 350.227 353.7 350.148 353.576 350.096C353.656 349.552 353.141 349.052 352.894 348.951C352.275 348.697 351.422 349.354 350.703 349.346C350.444 349.083 350.217 348.793 350.033 348.492C350.135 347.897 350.234 347.293 350.33 346.687C350.445 346.684 350.554 346.691 350.634 346.724C350.758 346.776 350.831 346.949 350.953 347C351.325 347.153 351.828 346.64 351.879 346.517C352.034 346.148 351.691 345.574 351.722 345.157L352.341 345.411C352.495 345.041 352.334 344.904 352.1 344.593C352.45 344.448 352.604 344.08 352.707 343.832C353.013 343.095 352.652 342.226 352.805 341.857C352.908 341.613 353.206 341.592 353.331 341.642C354.813 342.253 355.764 343.795 357.247 344.407C357.371 344.458 357.371 344.458 357.422 344.335C356.781 343.784 355.772 343.081 355.235 342.283L355.78 342.363C355.635 342.016 355.476 341.878 355.29 341.802C355.105 341.725 354.956 341.736 354.77 341.659C354.719 341.782 355.142 341.813 355.163 342.109C354.606 341.88 354.4 341.507 353.658 341.202C353.709 341.08 354.007 341.058 354.007 341.058C354.253 341.16 354.698 341.485 354.698 341.485C354.928 340.933 354.794 340.733 354.438 340.37C355.444 339.344 355.98 339.277 356.35 339.43C356.597 339.531 356.695 339.643 356.882 339.719C356.943 339.744 357.091 339.733 357.206 339.636L356.34 339.28C356.495 338.911 356.277 338.39 356.307 337.97L357.718 338.407C357.697 338.11 357.45 338.009 357.326 337.958C356.955 337.805 356.657 337.826 356.409 337.725C356.82 336.74 358.447 337.699 359.393 337.513C359.022 337.36 358.6 337.33 358.229 337.178C357.735 336.975 357.342 336.524 357.547 336.033C357.752 335.542 360.915 336.987 361.511 336.945C359.977 336.458 358.792 335.825 357.649 335.786C357.854 335.295 357.534 335.019 357.687 334.651C357.913 334.455 358.14 334.26 358.561 334.291C358.066 334.087 357.952 333.319 358.105 332.951C358.331 332.756 358.753 332.786 359.031 332.468C358.483 332.386 358.233 332.644 358.171 332.618C358.108 332.593 358.135 332.532 358.135 332.532C358.185 332.41 358.411 332.214 358.514 331.968C358.565 331.845 358.492 331.671 358.369 331.621C357.998 331.467 357.822 331.54 357.576 331.437C357.33 331.336 357.256 331.161 357.307 331.04C357.461 330.67 358.18 330.679 358.386 330.187C358.438 330.064 358.315 330.014 358.315 330.014C357.45 329.657 357.338 330.619 356.72 330.364C356.225 330.161 356.963 328.737 357.197 327.826C356.673 328.041 356.045 328.504 355.552 328.3C354.933 328.045 354.92 327.032 355.023 326.785C355.126 326.538 355.178 326.417 355.403 326.222C355.206 325.997 355.257 325.874 355.308 325.751C355.411 325.506 355.637 325.31 355.739 325.065C355.791 324.942 355.791 324.942 355.717 324.768C355.317 325.036 355.031 326.07 354.659 325.918C354.536 325.866 354.391 325.518 354.267 325.468C354.771 324.954 355.931 323.56 356.034 323.314C356.136 323.07 356.062 322.895 355.939 322.844C355.078 324.217 353.632 326.646 352.643 326.24C352.395 326.137 352.456 325.298 352.609 324.93C352.66 324.806 352.836 324.735 352.887 324.611C352.708 324.539 351.925 325.19 351.224 325.444C350.671 320.864 349.467 316.487 347.309 312.613C347.267 312.304 347.125 312.017 347.228 311.768C347.178 311.892 347.127 312.014 347.1 312.076L347.063 312.183C345.957 310.278 344.619 308.495 342.997 306.882C342.345 308.829 342.264 310.918 342.442 313.055C342.376 313.081 342.318 313.131 342.292 313.193C342.348 313.276 342.418 313.357 342.481 313.44C342.863 317.385 344.051 321.474 344.104 325.127C343.747 325.13 343.368 325.163 342.989 325.433C342.088 323.767 341.595 319.386 341.276 319.111C340.905 318.958 340.729 319.03 340.504 319.225C340.145 320.085 341.255 321.767 340.997 323.605C340.44 327.552 340.379 332.568 340.185 333.208C340.143 333.307 340.09 333.409 340.039 333.513L340.019 333.527C339.556 333.987 339.238 334.448 339.039 334.897C338.116 334.517 337.486 334.114 336.252 333.605C337.829 334.686 339.27 334.703 338.555 336.425C337.964 337.838 334.652 338.491 333.609 338.565C331.966 338.68 330.107 340.363 330.133 340.301C330.133 340.301 330.205 340.476 330.328 340.526C330.577 340.629 330.904 340.188 331.378 340.095C334.158 340.376 335.933 337.505 340.012 339.185C340.517 339.393 340.982 339.621 341.42 339.865C340.027 340.777 340.02 343.07 340.02 345.369C340.889 346.234 341.758 346.845 342.478 347.354C342.119 347.655 341.689 347.767 341.246 348.047C341.268 348.344 341.435 348.988 341.229 349.479C341.125 349.725 340.922 350.217 340.551 350.065C340.427 350.014 340.354 349.84 340.107 349.739C339.984 349.687 339.686 349.708 339.582 349.953C339.378 350.445 340.243 350.802 339.936 351.539C339.71 351.735 339.115 351.777 338.961 352.145C338.806 352.515 339.321 353.013 339.168 353.384C338.942 353.578 338.49 353.97 338.337 354.338C338.233 354.582 338.503 354.981 338.874 355.134C338.998 355.186 339.296 355.163 339.42 355.215C339.667 355.317 339.708 355.91 339.659 356.032C339.557 356.277 339.135 356.249 339.084 356.372C339.032 356.494 339.156 356.545 339.279 356.597C339.355 356.627 339.459 356.627 339.575 356.619C336.713 364.462 340.731 373.139 331.089 377.933C334.066 377.933 337.041 380.894 337.041 380.894C342.999 380.892 342.999 372.011 348.954 369.05Z" fill="#111827"/>
<path d="M335.677 369.08C334.07 368.418 330.592 374.331 328.973 376.833C328.768 377.325 328.811 377.918 329.553 378.223C329.675 378.273 330.273 378.231 330.5 378.037C331.689 376.222 332.859 374.11 334.173 372.347C334.87 372.059 335.55 371.475 335.909 370.613C336.111 370.122 336.295 369.334 335.677 369.08Z" fill="#111827"/>
<path d="M373.53 343.909C373.381 343.92 373.192 344.201 373.038 344.571C372.909 344.877 372.818 345.272 372.741 345.456C373.407 345.947 373.627 348.198 373.813 348.274L373.868 348.288C373.797 348.382 373.668 348.451 373.624 348.557C373.599 348.619 373.599 348.619 373.66 348.643C373.722 348.668 374.179 347.92 376.281 348.787C376.775 348.99 378.318 348.761 378.422 348.516C378.676 347.901 378.068 346.93 378.221 346.56C378.325 346.316 378.623 346.293 378.725 346.048C378.982 345.433 377.558 343.982 377.391 343.338C375.658 342.624 374.485 343.005 373.53 343.909Z" fill="#111827"/>
<path d="M159.397 314.441L160.866 314.821C162.206 314.652 162.895 313.379 162.726 312.047C162.62 311.212 161.856 310.123 161.297 310.194C161.186 310.207 161.074 310.221 160.969 310.291C160.787 310.201 160.549 310.118 160.27 310.153C160.213 310.16 160.102 310.175 160.11 310.23C159.083 310.642 158.721 311.816 158.764 312.15C158.778 312.261 158.786 312.316 158.855 312.42L158.696 313.401C159.012 313.644 159.333 313.942 159.397 314.441Z" fill="#111827"/>
<path d="M198.973 313.429C193.629 313.429 193.629 308.115 188.285 308.115C198.973 318.743 182.941 324.057 182.941 329.371C193.63 329.372 188.285 313.429 198.973 313.429Z" fill="#111827"/>
<path d="M119.708 232.866C125.661 232.866 119.708 241.748 125.661 238.788C128.638 235.828 125.661 235.828 122.684 235.828C122.684 232.866 122.684 229.906 125.661 226.945C122.685 229.906 122.685 229.906 119.708 232.866Z" fill="#111827"/>
<path d="M138.626 303.397L138.564 303.349C138.452 303.362 138.41 303.48 138.416 303.536C138.424 303.592 138.556 303.745 138.725 303.723C138.704 304.009 138.642 304.411 138.642 304.411C138.734 305.134 139.881 305.666 139.881 305.666L139.826 305.673C140.272 305.617 140.279 305.672 140.699 305.846C140.852 305.714 141.111 305.511 141.39 305.477C141.502 305.462 141.613 305.448 141.74 305.544C141.669 304.988 142.654 304.695 142.555 303.918C142.54 303.807 142.423 303.765 142.408 303.654C142.394 303.544 142.428 303.369 142.47 303.252" fill="#111827"/>
<path d="M134.755 306.877C134.357 307.323 133.855 307.838 133.912 308.283C133.927 308.394 134.102 308.428 134.157 308.421C134.185 308.642 134.081 308.713 134.103 308.88C134.548 308.823 134.599 309.664 135.271 309.579C136.444 309.431 136.884 308.867 136.819 307.916C136.609 307.604 136.657 307.089 135.594 306.772C135.426 306.793 135.265 306.869 135.041 306.898C134.929 306.912 134.873 306.919 134.755 306.877Z" fill="#111827"/>
<path d="M145.921 307.615C145.139 307.713 144.958 308.526 144.994 308.805C145.064 309.361 145.457 309.763 146.183 309.672C146.798 309.595 147.035 309.226 147.083 308.711C146.999 308.043 146.704 307.517 145.921 307.615Z" fill="#111827"/>
<path d="M198.973 329.372C204.317 324.058 204.317 324.058 209.662 318.744C193.629 318.744 193.629 345.314 177.596 345.314C193.63 350.628 190.523 337.774 198.973 329.372Z" fill="#111827"/>
<path d="M244.752 179.577C244.752 185.5 241.773 185.5 238.796 188.46C243.945 186.754 250.078 187.018 254.354 189.247C251.253 186.487 248.227 183.034 244.752 179.577Z" fill="#111827"/>
<path d="M274.523 188.46C274.523 191.421 274.523 194.381 271.545 194.381C265.925 195.778 261.631 194.535 257.724 191.902C258.924 193.364 259.637 195.175 259.637 197.341C256.66 200.301 253.682 203.262 247.729 203.262C249.663 203.262 251.596 204.51 253.531 205.385C252.702 205.48 251.857 205.698 251.077 205.853C252.938 206.225 255.171 206.225 256.66 206.225C271.545 206.225 289.41 203.264 304.295 206.225C295.364 197.34 280.479 200.301 274.523 188.46Z" fill="#111827"/>
<path d="M451.511 193.605L452.571 194.131L452.618 194.179C452.715 194.179 452.715 194.083 452.715 194.035C452.715 193.843 452.427 193.988 452.331 193.843C452.137 193.747 451.849 193.605 451.511 193.605Z" fill="#111827"/>
<path d="M433.172 178.479C433.172 178.335 433.172 178.192 433.028 178.192C432.93 178.192 432.834 178.239 432.834 178.335C432.883 178.479 433.029 178.479 433.172 178.479Z" fill="#111827"/>
<path d="M451.993 197.529C451.993 197.433 451.896 197.289 451.896 197.194C451.896 197.098 451.993 196.954 451.993 196.811C451.993 196.667 451.848 196.524 451.848 196.428C451.848 196.189 452.33 196.284 452.33 195.997C452.233 195.71 451.801 195.518 451.801 195.326C451.801 195.039 452.136 195.087 452.378 194.992L452.33 194.8C451.752 194.8 451.416 194.752 451.27 194.226C451.222 194.226 451.511 193.987 451.511 193.891L451.367 193.747C451.222 193.747 451.174 193.939 451.03 193.987C450.789 193.987 450.404 193.412 449.393 193.221C449.153 193.46 448.671 193.316 448.383 193.508C448.286 193.46 448.191 193.363 448.047 193.363C448.047 193.604 447.805 193.795 447.516 193.795C447.229 193.795 447.324 193.651 447.084 193.46C447.131 193.316 447.18 193.174 447.18 193.029C447.18 192.79 446.073 191.641 446.025 191.593C445.88 191.545 445.784 191.449 445.784 191.306C445.832 191.21 446.072 190.876 446.121 190.779C445.975 190.779 445.928 190.779 445.879 190.875C445.928 190.683 445.975 190.539 445.975 190.396C445.928 190.492 445.831 190.539 445.735 190.539C445.638 190.539 445.446 190.443 445.446 190.3C445.446 190.253 445.543 190.108 445.543 190.013V189.966C445.398 190.062 445.398 190.253 445.207 190.397C444.965 190.158 444.532 189.966 444.003 189.966C444.629 190.397 445.784 190.732 445.784 190.876C445.736 191.019 445.59 191.115 445.447 191.21C445.303 191.115 445.254 190.923 445.159 190.827C445.062 190.827 445.013 190.875 444.918 190.875C444.822 190.875 444.773 190.731 444.582 190.731C444.437 190.779 444.292 190.827 444.052 190.827C443.811 190.827 443.763 190.635 443.57 190.635C443.377 190.635 443.329 191.018 442.993 191.018C442.993 191.018 442.608 190.97 442.608 190.826C441.983 191.018 442.127 191.88 441.307 191.88C441.067 191.88 441.02 191.688 440.874 191.688L440.827 191.784C440.874 192.023 441.115 192.071 441.115 192.262C441.067 192.406 441.019 192.549 440.827 192.549C440.586 192.549 440.009 192.357 439.479 192.357C439.479 191.688 440.152 191.831 440.152 191.209C440.152 191.066 440.104 190.875 439.768 190.875C439.623 190.875 439.526 190.97 439.335 190.97C439.238 190.97 438.951 190.922 438.951 190.826C438.951 190.587 439.816 190.491 440.202 190.347C440.346 190.539 440.444 190.778 440.538 190.778L440.635 190.683C440.635 190.539 440.443 190.347 440.443 190.156C440.443 190.061 440.538 190.012 440.587 190.012C440.731 190.012 440.828 190.683 441.358 190.683C441.453 190.683 441.502 190.635 441.502 190.539C441.502 190.108 440.731 189.821 440.731 189.678C440.731 189.486 441.02 189.437 441.213 189.437C441.308 189.437 441.406 189.486 441.501 189.486C441.597 189.342 441.837 189.247 442.078 189.151C442.078 188.864 441.837 189.007 441.837 188.528C442.561 188.815 443.762 188.959 444.63 189.198C444.726 189.151 444.823 189.151 444.918 189.151C445.207 189.151 445.544 189.294 445.688 189.486C445.881 189.007 446.362 188.768 446.362 188.72C446.322 188.44 446.117 188.032 446.077 187.875C449.739 187.735 453.175 187.326 455.858 185.672L456.422 185.752C456.519 185.752 456.615 185.704 456.615 185.704C456.615 185.581 456.334 185.538 456.097 185.522L456.136 185.498C456.475 185.16 456.826 184.844 457.183 184.541L457.242 184.556L457.338 184.508C457.434 184.508 457.579 184.508 457.579 184.46C457.579 184.422 457.458 184.415 457.336 184.414C463.231 179.539 471.217 178.997 474 170.695C462.092 167.734 450.183 173.655 441.25 167.734C438.273 173.655 450.183 167.734 447.204 173.655C444.842 178.353 440.606 175.599 437.47 175.739C437.637 175.594 437.939 175.693 437.939 175.414C437.939 175.318 437.891 175.222 437.891 175.175C437.891 174.792 438.227 173.93 438.227 173.74C438.227 173.692 438.131 173.548 438.034 173.404C438.131 173.021 438.709 172.447 438.757 172.016C438.757 171.92 438.516 171.776 438.516 171.681C438.516 171.537 439.142 170.771 439.142 170.58C439.142 170.485 438.997 170.341 438.901 170.341C438.323 170.675 438.468 171.346 438.083 171.537C437.89 171.154 437.553 170.675 437.553 170.341C437.553 170.197 437.553 170.054 437.602 169.958C437.602 169.719 436.831 169.719 436.831 168.953C436.831 168.474 437.361 168.044 437.361 167.899L437.264 167.756C436.927 167.756 436.879 168.618 436.493 168.618C436.205 168.618 436.205 168.282 436.205 167.947C436.302 167.851 436.686 167.947 436.686 167.612C436.686 167.276 436.35 167.325 436.35 167.085C436.35 166.989 436.398 166.893 436.398 166.799C436.35 166.703 436.302 166.655 436.253 166.655C436.253 166.655 435.001 167.422 434.905 167.422C434.905 167.422 434.905 167.422 435.434 167.756C435.434 167.756 435.627 167.613 435.724 167.613C435.963 167.613 435.915 168.14 435.915 168.283C435.434 168.187 435.675 167.995 434.086 167.995C434.375 167.709 434.615 167.326 434.615 166.896C434.615 166.752 434.519 166.56 434.519 166.417C434.519 166.369 435.242 165.65 435.242 165.316C435.242 165.124 434.857 165.172 434.857 164.885C434.857 164.837 434.954 164.693 435.099 164.693C435.194 164.693 435.291 164.741 435.386 164.741C435.482 164.741 435.627 164.693 435.627 164.454C435.579 164.311 435.386 164.167 435.243 164.167C435.147 164.167 435.099 164.263 434.955 164.263C434.233 164.263 434.57 163.306 434.28 163.306L434.135 163.353C433.317 163.353 432.692 162.396 432.692 162.444C432.692 162.301 432.74 162.205 432.74 162.062L432.644 161.966C432.546 161.966 432.451 161.966 432.451 162.301C432.451 162.444 432.546 162.636 432.546 162.827C432.546 162.971 432.306 162.875 432.306 163.019L432.353 163.068C432.403 163.068 431.344 163.69 431.198 163.69C431.198 163.737 431.005 164.455 430.718 164.599C430.766 164.694 430.862 164.934 430.862 164.982C430.862 165.125 430.62 165.078 430.62 165.222L430.718 165.317L430.862 165.269C430.959 165.269 430.959 165.365 430.959 165.413C430.959 165.605 430.815 165.652 430.815 165.748C431.054 165.988 431.68 166.61 431.68 166.561C431.632 166.561 431.583 166.609 431.487 166.609C431.39 166.609 431.294 166.513 431.294 166.369C430.958 166.369 429.561 166.801 429.561 167.327L429.609 167.47C429.609 167.662 429.416 167.757 429.273 167.902L429.514 168.859C429.562 169.003 429.755 169.146 429.802 169.338C429.899 169.338 429.995 169.29 430.09 169.29C430.236 169.29 430.235 169.481 430.235 169.673C430.332 169.673 430.476 169.577 430.524 169.577C430.668 169.577 430.619 169.817 430.765 169.817L430.91 169.721L431.197 169.817L431.39 169.721L431.439 169.817C431.439 170.152 431.053 170.774 430.62 171.3C430.62 171.396 430.862 171.54 430.862 171.683C430.862 171.874 430.477 171.827 430.477 172.113C430.477 172.305 430.67 172.4 430.67 172.592C430.67 172.784 430.574 173.023 430.477 173.215C430.477 173.646 430.862 173.646 430.862 173.981C430.862 174.124 430.669 174.268 430.669 174.412C430.669 174.652 431.247 174.556 431.247 175.034C431.247 175.321 430.911 175.275 430.911 175.466C430.911 175.562 431.054 175.609 431.103 175.609C431.199 175.609 431.296 175.562 431.44 175.562C431.728 175.562 432.258 176.806 432.403 176.854C432.451 176.854 432.595 176.806 432.691 176.806C433.028 176.806 432.691 177.333 433.076 177.333C433.172 177.333 433.269 177.141 433.364 177.141C433.504 177.141 434.008 177.635 434.479 177.707C433.945 178.414 433.4 179.109 432.841 179.79C432.749 179.78 432.651 179.774 432.545 179.774C432.834 179.439 432.979 179.008 432.979 178.72L432.93 178.673C432.738 178.673 432.113 180.347 432.113 180.492V180.635L432.12 180.657C430.764 182.253 429.337 183.779 427.857 185.251C427.345 184.51 427.195 184.318 426.72 184.081C425.999 184.081 425.614 184.464 425.469 185.23L425.565 185.899C425.614 185.995 425.902 186.091 425.95 186.235C426.205 186.235 426.456 186.336 426.668 186.408C426.123 186.93 425.573 187.445 425.016 187.956L425.036 187.862C425.036 187.431 424.652 187.144 424.169 187.144C423.785 187.144 423.4 187.336 423.4 187.862C423.4 188.293 423.736 188.437 423.881 188.676L424.026 188.629C424.115 188.629 424.183 188.644 424.248 188.658C423.518 189.312 422.782 189.955 422.038 190.591L422.003 190.544C421.859 190.544 421.715 190.687 421.619 190.687C421.475 190.687 421.426 190.495 421.283 190.448C421.09 190.83 420.849 191.357 420.368 191.357C420.08 191.357 419.742 191.261 419.598 191.07L419.694 191.357C419.646 191.453 419.501 191.5 419.406 191.5C419.26 191.453 419.117 191.308 419.07 191.165C419.07 191.021 419.07 190.83 419.262 190.83C419.358 190.83 419.407 190.974 419.55 190.974L419.648 190.83C419.648 190.734 419.214 190.495 419.07 190.352C418.924 190.591 418.877 190.974 418.685 190.974C418.203 190.974 417.769 190.065 417.384 190.065L417.288 190.112C417.625 190.448 418.684 191.166 418.684 191.309C418.684 191.405 418.586 191.453 418.538 191.453C418.395 191.453 418.297 191.261 418.202 191.118L418.153 191.262C418.153 191.358 418.153 191.454 418.202 191.501C418.202 191.454 416.854 194.134 416.42 194.134C415.603 194.134 415.506 193.751 414.833 193.512L414.735 193.608C414.735 193.656 415.554 194.087 415.554 194.804C415.554 194.996 415.217 194.9 415.217 195.043L415.266 195.139C415.411 195.139 415.602 195.043 415.795 195.043C415.933 195.043 416.051 195.215 416.131 195.407C415.077 196.235 414.016 197.057 412.954 197.876C412.51 197.91 412.115 198.17 411.989 198.616C400.914 207.114 389.675 215.45 382.705 228.029C395.829 228.432 410.039 228.594 414.452 241.753C408.497 241.753 405.521 250.635 399.566 247.674C394.341 260.663 382.239 271.371 369.294 271.799C387.814 272.196 403.859 261.168 417.431 247.674C420.409 244.713 423.386 253.595 429.339 250.635C414.453 241.753 405.522 226.95 390.636 218.069C397.073 209.535 406.604 202.538 416.998 200.405V200.406C416.998 201.459 416.421 202.177 416.421 203.039C416.421 203.182 416.47 203.326 416.518 203.469C416.951 203.469 417.336 202.512 417.914 202.368C418.444 202.609 418.877 202.225 419.117 203.039C419.648 203.565 419.648 203.422 419.839 204.187L419.792 205.384L419.839 205.479C419.888 205.479 419.936 204.761 419.936 204.619C419.936 204.475 419.936 204.332 419.888 204.236C420.321 203.804 419.936 202.895 420.754 202.895C421.284 202.895 421.477 203.995 421.91 203.995C421.957 203.995 422.247 203.948 422.247 203.852C422.247 203.612 422.101 203.325 422.101 203.086C422.101 202.895 422.149 202.512 422.39 202.512C422.582 202.512 422.726 202.655 422.967 202.751C423.208 202.368 423.641 201.697 424.075 201.697C424.508 201.697 425.518 203.803 425.711 203.803C425.904 203.803 425.952 203.66 425.952 203.564C425.952 203.181 424.461 202.033 424.461 201.554C424.461 201.411 424.604 201.411 424.604 201.411C424.604 201.315 424.124 200.788 424.124 200.692C424.124 200.56 424.495 200.059 424.754 199.764L424.825 199.767C425.459 200.064 426.258 200.198 427.131 200.257C427.605 200.455 428.066 200.675 428.504 200.932C429.66 201.315 430.863 201.601 431.826 202.129C431.874 202.176 431.97 202.176 432.067 202.176C432.163 202.176 432.308 202.08 432.308 201.984C432.308 201.697 431.875 201.553 431.394 201.553C430.724 201.553 429.268 200.97 428.011 200.293C428.448 200.303 428.894 200.304 429.342 200.304C428.727 200.182 428.112 200.087 427.498 200.005C426.547 199.448 425.811 198.874 425.811 198.538H425.569C425.569 197.867 425.859 196.719 426.436 196.719L426.629 196.766C426.724 196.766 426.822 196.623 426.822 196.527C426.822 196.383 426.676 196.24 426.676 196.048C426.676 195.905 426.774 195.809 426.965 195.809C427.061 195.809 427.253 195.905 427.253 196.048C427.205 196.144 426.965 196.766 426.965 196.766C427.013 196.911 427.158 197.007 427.158 197.149C427.158 197.628 426.436 197.341 426.387 197.628L427.061 197.485C426.917 197.82 426.58 198.154 426.58 198.25C426.58 198.394 426.822 198.49 426.868 198.49C426.917 198.49 427.013 198.442 427.11 198.442C427.206 198.442 427.303 198.538 427.303 198.634C427.303 198.777 427.254 199.065 427.158 199.113C427.158 199.209 427.158 199.352 427.303 199.352C427.4 199.352 427.495 199.256 427.591 199.256C427.686 199.256 427.976 199.304 427.976 199.497C427.976 199.544 427.928 199.687 427.928 199.783C428.169 199.687 428.457 199.448 428.891 199.448C429.227 199.448 429.227 200.119 429.853 200.119C429.997 200.119 430.046 199.879 430.189 199.879C430.285 199.927 430.382 200.071 430.526 200.071C430.477 199.927 430.381 199.785 430.381 199.64C430.381 199.544 430.381 199.544 430.429 199.544C430.622 199.544 430.766 199.687 430.959 199.736C430.862 199.593 430.67 199.544 430.622 199.401C430.622 199.257 431.584 198.252 431.584 198.108C431.921 198.108 432.307 198.251 432.836 198.251C432.5 198.108 432.259 198.06 431.922 198.012L431.777 198.06C431.489 198.06 431.199 197.725 431.199 197.39C431.199 197.007 431.729 196.958 431.729 196.767C431.729 196.385 431.345 196.098 431.345 195.714C431.345 195.284 431.922 195.235 431.874 195.235C431.97 195.235 432.067 195.283 432.21 195.283C432.307 195.283 432.404 195.235 432.404 195.187C432.404 195.043 432.162 195.043 432.162 194.995C432.162 194.755 432.404 194.755 432.499 194.755C432.499 194.851 432.451 194.995 432.451 195.187C433.124 195.187 433.268 195.57 433.268 196.335H433.557L433.508 196.431L433.557 196.479L433.655 196.428C433.895 196.811 434.906 197.481 434.906 197.576L435.148 197.529C435.58 197.96 435.87 198.869 436.542 198.869C437.266 198.869 437.025 197.289 437.456 197.289C438.18 197.289 438.661 197.72 439.142 198.294L439.19 198.342C439.238 198.342 439.287 198.246 439.287 198.15C439.287 198.055 438.805 197.48 438.805 196.857C438.805 196.57 439.046 196.378 439.335 196.378C439.623 196.378 439.72 196.665 440.009 196.665L440.057 196.474C440.057 195.948 439.721 195.996 439.721 195.708C439.721 195.42 440.538 195.229 441.068 195.229L441.645 195.899C441.645 195.994 441.549 196.138 441.549 196.33C441.549 196.473 441.597 196.76 441.694 196.76C441.791 196.76 441.935 196.617 442.03 196.569C442.656 196.569 442.753 197.478 443.283 197.478C443.427 197.478 443.57 197.239 443.667 197.239C443.812 197.239 443.86 197.478 443.955 197.573C444.1 197.526 444.291 197.478 444.437 197.478C444.63 197.478 444.822 197.573 444.918 197.573C445.64 197.573 445.64 196.664 446.41 196.664C446.699 196.664 446.603 196.713 446.794 196.905C446.794 196.952 446.746 197.048 446.699 197.144C446.699 197.144 447.083 197.287 447.083 198.292C447.083 198.532 446.939 198.724 446.939 198.915L446.953 198.975C446.567 198.331 446.057 197.608 445.783 197.335C445.686 197.431 445.638 197.478 445.638 197.478L445.686 197.526L446.698 199.296C446.793 199.775 446.986 200.11 447.274 200.302C447.371 200.254 447.467 200.158 447.467 200.063C447.467 199.911 447.279 199.529 447.022 199.093L447.13 199.154C447.515 199.154 447.66 198.388 447.854 198.388C448.191 198.388 449.201 198.916 449.442 198.916C450.5 198.916 450.548 198.341 450.934 198.341C451.03 198.341 451.175 198.437 451.27 198.437L451.367 198.293C451.367 198.197 451.318 198.101 451.318 198.054C451.319 197.817 451.993 197.864 451.993 197.529Z" fill="#111827"/>
<path d="M336.293 212.529C332.205 210.896 327.537 211.007 322.753 210.093C327.083 211.199 331.862 212.348 336.293 212.529Z" fill="#111827"/>
<path d="M372.771 223.985C372.771 215.105 375.749 209.184 372.771 200.301C378.726 200.301 375.749 194.381 378.726 191.421C380.041 184.881 380.191 177.764 378.411 171.345C375.532 177.431 372.458 188.252 363.84 182.539C348.954 170.697 342.999 152.934 325.134 144.052C340.022 158.854 355.391 179.651 351.931 200.301C350.241 210.381 343.76 212.832 336.293 212.529C338.778 213.521 341.049 215.156 342.999 218.065C342.999 218.065 340.022 221.025 337.045 223.985C345.977 221.025 354.907 221.025 363.841 221.025C366.82 221.025 366.82 226.946 369.796 226.946C373.221 227.628 377.12 227.838 381.166 227.977C379.238 225.49 372.771 229.025 372.771 223.985Z" fill="#111827"/>
<path d="M360.862 152.934C366.576 158.612 372.287 164.292 377.998 169.972C375.542 162.451 370.267 156.05 360.862 152.934Z" fill="#111827"/>
<path d="M235.719 139.364C232.897 138.02 230.027 137.238 226.268 139.106C229.605 142.424 231.782 140.174 235.719 139.364Z" fill="#111827"/>
<path d="M238.194 139.106C237.29 139.106 236.473 139.209 235.72 139.364C238.866 140.862 241.952 143.059 246.144 143.059C242.168 143.059 242.168 139.106 238.194 139.106Z" fill="#111827"/>
<path d="M277.942 139.106C276.104 140.02 274.91 140.934 274.199 141.848C278.097 141.263 281.994 140.398 285.892 139.106C281.917 139.106 281.917 139.106 277.942 139.106Z" fill="#111827"/>
<path d="M311.249 358.879C311.496 358.979 312.021 358.764 312.123 358.518C312.429 357.78 310.874 352.819 309.391 352.209C309.02 352.055 308.722 352.077 308.444 352.394C307.47 354.731 309.308 356.928 311.124 358.828C311.163 358.843 311.202 358.858 311.249 358.879Z" fill="#111827"/>
<path d="M308.822 345.926C310.181 346.484 312.135 345.273 313.039 344.493C313.039 344.493 313.039 344.493 313.091 344.37C313.142 344.248 312.946 344.023 312.822 343.971C311.586 343.463 308.635 344.984 308.532 345.23C308.378 345.598 308.574 345.822 308.822 345.926Z" fill="#111827"/>
<path d="M274.199 141.848C266.173 143.055 258.145 143.059 250.117 143.059C262.042 143.059 269.992 143.059 277.941 150.964C274.887 147.926 271.837 144.887 274.199 141.848Z" fill="#111827"/>
<path d="M36.7549 203.852C36.5683 204.254 35.3084 204.667 35.3084 204.667L34.9044 204.728C34.5576 204.893 33.3582 205.708 33.075 205.751C30.8119 206.093 31.8236 206.761 31.3379 206.834C31.1767 206.858 31.0039 206.81 30.9233 206.822C30.9901 207.26 29.7991 207.589 29.3134 207.662L29.3951 207.649C28.6973 208.501 27.8341 208.259 27.8903 208.623C27.9009 208.696 27.9009 208.696 27.8203 208.709C27.7386 208.721 27.5668 208.672 27.4046 208.696C27.2423 208.721 27.2762 208.94 27.1956 208.952C27.115 208.964 27.0228 208.903 26.9422 208.915C26.9761 209.134 26.098 209.341 26.1203 209.486C26.0397 209.499 25.4013 210.193 24.9166 210.266C23.0586 210.546 23.6875 211.422 23.1212 211.508C23.0406 211.519 22.9484 211.459 22.8678 211.471C22.3015 211.556 20.9355 212.36 21.0161 212.347C19.9662 212.505 20.0797 212.713 19.9981 212.725C19.9175 212.737 19.9069 212.665 19.8263 212.676C19.0733 213.163 18.9567 213.48 19.0118 213.844C19.0669 214.208 19.8061 214.172 19.8178 214.244L19.8284 214.317C23.0629 213.829 22.4128 212.285 23.7872 212.077L23.6949 212.016C23.6727 211.871 24.4808 211.748 24.4585 211.602C24.4585 211.602 24.4468 211.529 24.3662 211.54C24.3662 211.54 27.0694 210.834 26.9804 210.25L27.4661 210.177C27.4555 210.104 27.3738 210.116 27.3738 210.116C27.3515 209.97 29.7345 208.789 29.7122 208.644C29.7938 208.631 29.9656 208.681 30.0473 208.668C30.2085 208.644 30.2668 208.485 30.3368 208.4C30.2552 208.413 30.1746 208.424 30.164 208.352C30.13 208.132 31.0781 207.84 31.4016 207.792L31.321 207.804L31.7038 207.6L31.6126 207.539C31.6009 207.466 31.6815 207.453 31.6815 207.453L32.1672 207.38C32.145 207.235 32.9637 207.185 32.9308 206.966C32.9202 206.893 32.8396 206.905 32.8279 206.833C33.3942 206.748 34.8768 205.628 35.6838 205.505L35.5926 205.444C35.582 205.371 35.6626 205.359 35.6626 205.359L36.1483 205.286C36.2173 205.201 36.5078 204.934 36.5884 204.92C36.5884 204.92 37.8377 204.433 37.7709 203.995C37.7189 203.669 37.0773 203.803 36.7549 203.852Z" fill="#111827"/>
<path d="M131.616 318.722C131.616 318.722 131.616 316.826 131.616 314.551C131.801 314.574 131.982 314.612 132.121 314.719C132.219 314.593 132.42 314.399 132.644 314.371C132.755 314.356 132.819 314.404 132.93 314.391C133.326 312.591 134.304 312.693 134.269 312.416C134.255 312.305 134.073 312.214 134.002 312.11C133.996 312.054 134.037 311.937 134.03 311.881C134.009 311.714 133.931 311.555 133.855 311.396C134.195 310.957 134.299 310.436 134.648 310.053C134.648 310.053 134.292 309.929 134.263 309.706C134.257 309.651 134.306 309.588 134.347 309.47C133.851 309.138 133.514 308.728 132.921 308.52C132.759 308.597 132.543 308.681 132.319 308.709C132.208 308.724 132.033 308.688 131.97 308.64C131.914 308.647 131.922 308.703 131.929 308.758C131.894 308.932 130.741 309.247 130.847 310.081C130.854 310.137 130.987 310.289 131.002 310.399C131.009 310.455 131.009 310.455 130.96 310.518C130.835 310.421 130.827 310.366 130.66 310.387C130.491 310.408 130.345 310.595 130.358 310.706C130.387 310.929 130.59 310.734 130.638 311.124C130.653 311.234 130.597 311.242 130.542 311.249C130.485 311.257 130.429 311.263 130.374 311.27C130.318 311.277 130.318 311.277 130.326 311.333C130.326 311.333 130.382 311.326 130.388 311.381C130.298 311.561 129.774 311.91 129.719 311.918C129.608 311.932 129.488 311.89 129.432 311.897C129.383 311.96 129.335 312.022 129.341 312.077C129.356 312.188 129.488 312.341 129.545 312.334C129.655 312.321 129.705 312.257 129.817 312.244C129.873 312.236 129.95 312.397 129.965 312.507C130.036 313.063 129.28 312.932 129.344 313.432C129.351 313.488 129.414 313.537 129.477 313.585C129.795 313.676 130.062 313.872 130.406 314.005L128.638 315.763C128.639 318.722 128.639 321.683 131.616 318.722Z" fill="#111827"/>
<path d="M457.867 152.488C457.867 152.823 457.962 153.062 458.154 153.349C458.154 153.492 457.961 153.684 457.913 153.923C458.106 153.779 458.154 153.587 458.298 153.491L458.779 153.827L458.587 154.21C458.683 154.402 458.923 154.402 459.019 154.592C459.212 154.975 459.212 155.501 459.261 155.98C459.261 156.076 459.068 156.028 459.019 156.125C458.826 156.459 458.826 156.843 458.826 156.794C458.826 157.416 459.211 157.656 459.453 158.374C459.501 158.374 459.549 158.327 459.645 158.327C459.982 158.327 459.934 158.566 460.271 158.566C461.282 158.566 461.763 158.087 462.101 157.369C462.101 157.273 462.052 157.226 462.052 157.13C462.052 156.699 462.341 156.364 462.341 155.742C462.341 155.647 462.341 155.551 462.293 155.408C462.341 155.025 462.582 154.594 462.582 154.116C462.582 152.823 460.848 153.015 460.848 152.201C460.848 151.961 460.993 151.961 461.185 151.961C461.811 151.961 462.774 151.292 462.774 150.574C462.774 148.564 461.329 147.414 460.656 147.414C460.558 147.414 460.462 147.462 460.414 147.51V147.463C460.414 147.367 460.656 146.935 460.799 146.935C461.28 146.935 461.857 147.51 462.386 147.654C463.157 147.654 463.205 147.222 463.205 146.553C463.589 146.409 463.879 146.122 463.879 145.691C463.879 145.5 463.831 145.308 463.831 145.069C463.831 145.021 463.927 144.973 463.975 144.829C463.975 144.686 463.495 144.494 463.398 144.159C463.398 144.111 463.447 144.015 463.447 143.919C463.447 143.727 463.061 143.919 463.061 143.727C463.927 143.536 464.168 143.393 464.168 143.201L464.12 143.058C464.216 142.914 464.361 142.866 464.409 142.771C464.12 142.196 464.167 141.431 463.205 141.431C462.291 141.431 462.049 142.245 462.049 142.914C462.049 143.154 462.385 143.297 462.385 143.441L462.245 143.537C462.101 143.537 462.005 143.346 461.909 143.25C460.128 144.111 460.465 144.494 459.839 144.494C459.695 144.494 459.551 144.447 459.406 144.302C459.029 144.444 458.282 144.997 458.118 145.017C458.132 145.109 458.154 145.188 458.154 145.26C458.154 145.452 457.867 145.452 457.867 145.595C457.867 145.74 457.962 145.787 457.962 145.834C457.962 145.978 457.867 146.121 457.867 146.217C457.867 146.409 458.154 146.791 458.203 146.935C457.721 147.51 457.144 147.558 456.951 148.419C457.096 148.802 457.24 149.281 457.48 149.855C457.192 149.999 457.144 150.287 456.903 150.478L456.806 151.435C456.903 151.674 457.867 152.105 457.867 152.488Z" fill="#111827"/>
<path d="M440.104 159.14C440.104 159.668 440.874 159.476 441.212 159.811C441.307 159.715 441.5 159.572 441.693 159.572C441.789 159.572 441.837 159.619 441.934 159.619C442.463 158.135 443.282 158.326 443.282 158.087C443.282 157.992 443.136 157.896 443.087 157.8L443.136 157.608C443.136 157.465 443.087 157.321 443.04 157.178C443.376 156.843 443.521 156.411 443.857 156.124C443.857 156.124 443.569 155.98 443.569 155.789C443.569 155.741 443.618 155.693 443.665 155.597C443.282 155.263 443.04 154.88 442.559 154.641C442.414 154.688 442.222 154.737 442.029 154.737C441.933 154.737 441.788 154.688 441.741 154.641L441.693 154.737C441.644 154.88 440.634 155.024 440.634 155.742C440.634 155.79 440.73 155.934 440.73 156.029L440.681 156.124C440.586 156.029 440.586 155.98 440.442 155.98C440.296 155.98 440.152 156.124 440.152 156.219C440.152 156.411 440.345 156.267 440.345 156.602C440.345 156.698 440.297 156.698 440.249 156.698H440.104L440.056 156.746L440.104 156.793C440.008 156.936 439.526 157.176 439.479 157.176C439.381 157.176 439.286 157.127 439.237 157.127L439.14 157.271C439.14 157.367 439.237 157.51 439.286 157.51C439.381 157.51 439.43 157.463 439.526 157.463C439.575 157.463 439.623 157.606 439.623 157.702C439.623 158.181 438.997 157.989 438.997 158.42L439.094 158.564C439.43 158.71 439.67 158.997 440.104 159.14Z" fill="#111827"/>
<path d="M98.867 383.852C100.038 383.852 101.208 383.856 102.197 384.036C100.314 381.784 98.867 379.097 98.867 374.972C98.867 377.931 98.867 380.892 98.867 383.852Z" fill="#111827"/>
<path d="M48.2528 179.578C48.2528 176.542 45.908 173.507 44.8242 170.869C44.3035 173.845 44.0045 177.465 48.2528 179.578Z" fill="#111827"/>
<path d="M179.251 147.012C173.298 152.934 167.343 155.894 161.39 158.854C176.276 161.816 179.251 141.091 194.14 144.052C186.446 140.992 179.349 140.11 172.694 140.736C173.897 140.781 175.093 140.895 176.276 141.091C179.251 141.091 179.251 144.052 179.251 147.012Z" fill="#111827"/>
<path d="M261.303 366.818C259.303 366.445 257.052 366.196 255.051 365.698C254.551 365.199 253.8 364.827 252.925 364.827C252.424 364.827 251.675 364.952 251.675 365.574C251.675 367.19 258.051 368.059 260.802 368.557C261.302 368.557 261.802 368.309 261.802 367.564C261.804 367.438 261.553 366.942 261.303 366.818Z" fill="#111827"/>
<path d="M246.423 394.173C246.423 394.546 246.548 394.795 246.924 394.918C249.299 394.918 250.549 392.556 251.55 390.318V390.194C251.55 389.945 251.175 389.572 250.925 389.572C250.175 389.572 246.423 392.68 246.423 394.173Z" fill="#111827"/>
<path d="M238.795 244.708C241.773 244.708 241.773 247.669 241.773 250.63C238.795 253.59 238.795 262.472 232.841 262.472C229.864 262.472 229.864 256.551 226.887 256.551C218.695 256.551 210.505 257.952 204.252 254.972C205.187 252.946 203.148 251.803 200.953 250.894C201.149 251.623 201.261 252.399 201.364 253.136C200.286 252.255 199.293 251.179 198.399 249.858C199.15 250.194 200.064 250.525 200.953 250.894C200.487 249.145 199.543 247.669 197.117 247.669C201.28 244.908 204.149 243.434 205.725 241.748C205.831 241.748 205.934 241.748 206.047 241.748C206.047 241.624 206.047 241.501 206.047 241.378C207.046 240.137 207.372 238.725 207.029 236.59C207.468 236.111 208.103 235.828 209.024 235.828C210.068 235.828 211.113 235.83 212.156 235.958C209.556 234.168 207.548 231.902 205.558 229.159C204.649 225.602 202.479 222.087 199.217 219.95C193.797 214.415 182.048 220.235 179.44 216.437C179.325 215.999 179.25 215.553 179.25 215.105C179.25 209.288 182.124 206.322 185.048 200.605C186.198 201.539 187.317 202.401 188.183 203.263L185.205 200.301C185.016 200.301 184.839 200.29 184.657 200.283C181.973 198.072 179.25 195.423 179.25 191.42C178.614 191.42 177.966 191.403 177.309 191.374C182.051 187.025 187.195 180.896 194.139 185.499C194.139 182.95 194.144 180.406 196.042 179.746C196.945 181.946 198.34 183.923 200.118 185.339C200.213 187.042 200.69 188.459 203.069 188.459C202.978 188.641 202.882 188.814 202.786 188.98C203.461 188.802 204.211 188.684 204.974 188.607C203.46 188.253 202.308 187.387 201.371 186.204C201.579 186.327 201.79 186.444 202.006 186.551C210.938 189.511 219.869 189.511 222.846 177.669C223.302 175.85 224.374 175.146 225.1 174.124C226.11 177.363 225.659 180.816 223.225 183.971C225.286 183.029 227.792 182.704 229.936 182.596C232.055 184.58 235.819 182.507 235.819 179.578C235.819 176.95 233.473 174.327 230.864 173.77C233.296 172.796 235.819 172.06 235.819 170.697C230.169 165.078 219.155 162.127 210.412 161.841C207.674 161.589 204.841 161.93 202.008 162.869C199.03 162.869 196.054 165.83 196.054 168.79C195.34 170.209 194.972 171.798 194.901 173.435C193.923 172.197 192.728 171.216 191.162 170.697L188.185 173.657L185.207 170.697C180.473 177.757 179.499 188.553 174.812 191.196C166.213 190.367 156.378 187.274 148.586 182.73C144.699 179.908 141.635 176.091 140.55 170.697L137.725 173.507C135.746 170.775 134.596 167.84 134.596 164.777C135.032 163.045 135.859 161.249 136.994 159.455C142.798 154.406 154.779 151.095 159.897 143.816C163.996 142.247 168.248 141.155 172.697 140.738C168.725 140.585 164.678 141.215 160.771 142.411C161.002 141.985 161.21 141.546 161.392 141.093C160.487 141.768 159.582 142.442 158.677 143.117C151.947 145.556 145.775 149.603 141.314 154.113C145.627 151.128 150.048 148.36 154.642 146.112C149.291 150.066 143.828 154.022 137.992 157.976C138.945 156.669 140.065 155.374 141.313 154.112C134.952 158.512 128.819 163.381 122.687 167.737C122.687 164.611 121.579 163.689 120.014 163.544C119.829 162.983 119.71 162.4 119.71 161.817C117.13 161.817 113.991 161.817 110.779 161.817C107.8 158.855 101.846 161.817 95.8913 161.817C97.2286 164.477 100.368 165.344 103.151 166.299C105.367 167.915 107.585 169.334 108.218 171.867C108.152 172.407 108.022 172.996 107.8 173.66C107.8 176.62 104.823 179.58 101.846 176.62C99.1502 171.258 95.6368 167.253 91.5581 164.426C90.9611 163.613 90.4085 162.756 89.9366 161.818C88.4806 158.92 85.5971 159.568 82.685 160.29C80.4113 159.658 78.0442 159.279 75.6125 159.127C75.4206 159.036 75.2329 158.947 75.0515 158.856C75.0961 158.943 75.1448 159.017 75.1915 159.098C69.4298 158.803 63.3087 159.788 57.1875 161.818L57.9383 162.565C56.2246 163.459 54.4631 164.45 52.3198 164.712C51.3505 164.364 50.0408 164.334 48.255 164.778L48.2348 164.786C49.8096 164.686 51.6804 165.762 53.5023 166.643C54.1301 167.458 54.5681 168.397 54.9149 169.398C55.0951 172.157 54.5479 175.26 55.2224 176.449C55.1948 176.572 55.1853 176.693 55.2023 176.809C55.2139 176.882 55.2245 176.955 55.3168 177.016C55.4663 176.958 55.5395 176.91 55.5893 176.842C55.9382 177.034 56.4483 176.988 57.1864 176.62V176.607C57.494 177.186 57.8567 177.728 58.3095 178.21C58.3159 178.276 58.2395 178.289 58.2395 178.289C58.2501 178.362 58.3424 178.423 58.423 178.41L58.4484 178.344C58.9225 178.82 59.4813 179.239 60.1632 179.578C59.2502 181.091 57.7209 182.294 56.1641 183.638C56.0581 183.494 55.9457 183.307 55.8725 182.827C55.8364 183.131 55.6975 183.301 55.7304 183.52C55.741 183.587 55.8258 183.709 55.8672 183.896C55.724 184.021 55.5819 184.147 55.4398 184.274C55.2298 184.231 55.1047 184.061 54.9085 184.092C54.5967 184.213 54.5373 184.372 54.4907 184.602C54.3061 184.481 54.1449 184.505 53.9827 184.53C54.0166 184.749 54.0272 184.821 54.2117 184.943C54.234 185.089 53.3899 185.515 52.9848 185.576C52.5001 185.65 51.4163 183.425 50.5276 183.558C50.6389 184.287 51.5276 184.153 51.5605 184.372L51.4916 184.457C51.815 184.408 51.9709 185.429 51.9593 185.356C52.0399 185.345 52.1098 185.259 52.1098 185.259C52.1714 185.66 52.2392 185.837 52.5224 185.794C52.5447 185.941 52.3898 186.561 52.0674 186.609C51.9062 186.635 51.7217 186.512 51.4789 186.549C51.236 186.586 51.1087 186.829 51.1416 187.048C51.1639 187.193 51.2455 187.182 51.4067 187.158C51.2678 187.328 51.0928 187.802 50.9295 187.827C50.7694 187.851 50.4926 187.67 50.3187 187.621L50.3409 187.767C50.1787 187.791 49.833 187.694 49.5912 187.73C49.43 187.754 49.3706 187.913 49.2105 187.937C48.9676 187.974 48.518 187.743 48.5074 187.67C48.5074 187.67 48.6579 187.573 48.9814 187.524C48.9475 187.304 48.764 187.183 48.7311 186.965C48.4066 187.013 48.3599 187.244 48.3122 187.475C48.1277 187.354 48.0471 187.365 47.8042 187.402C48.2974 187.925 48.606 188.326 49.7386 188.155L49.6697 188.241C49.7025 188.46 50.2794 188.447 50.3134 188.666C49.8287 188.739 49.7195 189.652 49.3154 189.713L49.1553 189.737C49.0737 189.75 49.1776 189.883 49.1076 189.968C48.9909 190.284 48.5975 190.418 48.6537 190.782C48.6982 191.074 48.905 191.342 48.9602 191.706C49.0005 191.701 48.3472 192.022 48.413 192.46C48.4352 192.606 48.6081 192.654 48.6198 192.728C48.6304 192.8 48.3525 193.141 48.3971 193.433C48.3971 193.433 48.4777 193.422 48.6399 193.396C48.8011 193.372 49.044 193.335 49.2274 193.456C49.0758 193.553 49.0758 193.553 49.0885 193.627C49.0991 193.7 49.7693 193.748 49.7799 193.821C49.8468 194.259 49.535 194.381 49.4533 194.393C49.2921 194.418 49.0376 194.381 48.957 194.393C48.6335 194.441 48.7364 194.575 48.6558 194.588C48.8181 194.564 48.9899 194.612 49.0832 194.673C49.0609 194.528 49.0609 194.528 49.3027 194.491C50.4014 194.325 50.5043 194.736 50.9062 194.883C50.9327 195.247 50.9719 195.622 51.0239 196.009C50.1119 196.756 48.0662 196.677 48.1574 197.277L48.2136 197.642C48.2136 197.642 48.2253 197.715 48.1436 197.727L48.0524 197.666C48.08 197.849 47.3907 198.214 47.362 198.294C47.2814 198.305 47.1489 198.25 47.1489 198.25C47.1595 198.323 47.1711 198.397 47.1011 198.481C47.0205 198.494 46.9283 198.433 46.8477 198.445C45.5072 198.871 44.3364 199.869 44.2558 199.882C44.2898 200.101 44.382 200.161 44.5432 200.137C47.1298 199.746 46.0852 198.859 47.0545 198.712C47.1361 198.7 47.309 198.748 47.3885 198.736C47.8742 198.664 47.0683 198.262 48.6855 198.018C48.8467 197.994 49.0196 198.041 49.1002 198.03C49.2624 198.006 49.2508 197.933 49.2391 197.859C49.2508 197.932 50.2211 197.786 50.4046 197.906C50.0811 197.955 50.1257 198.247 50.1257 198.247C50.3409 197.983 50.832 197.592 51.1925 197.405C50.8574 197.911 50.5912 198.398 50.3855 198.868L50.3759 198.807C50.2137 198.831 50.1331 198.844 50.1448 198.917C50.1522 198.971 50.2169 199.025 50.3017 199.072C49.0503 202.168 50.4735 204.491 52.5956 206.533L52.5595 206.614L52.6507 206.675C51.5192 206.846 51.586 207.285 51.5976 207.356C51.516 207.369 51.3431 207.32 51.3431 207.32C51.3654 207.466 50.9136 207.758 50.9688 208.123C51.131 208.099 51.1427 208.171 51.1756 208.39C52.235 207.784 52.8533 207.375 53.2043 207.098C54.093 207.891 55.058 208.647 55.9838 209.398C57.6711 212.558 59.843 216.137 62.5844 220.202C63.1104 221.453 63.5589 222.704 63.876 223.955C63.8729 224.093 63.8665 224.232 63.8569 224.372C63.0096 226.725 62.7201 229.531 63.139 232.864C63.7064 231.737 64.0563 230.61 64.2313 229.483C69.3206 227.264 66.5665 223.769 65.7075 220.931C69.223 216.24 75.7058 214.118 82.8387 213.413C89.856 213.744 96.9794 216.021 103.352 217.686C101.857 218.062 100.361 218.062 98.866 218.062C104.82 218.062 107.796 221.022 107.796 226.943C107.796 226.836 107.804 226.741 107.806 226.636C107.846 225.959 108.005 225.159 108.165 224.323C108.93 222.088 110.794 221.639 112.859 221.362C116.675 221.99 120.434 222.73 124.145 223.577C125.643 225.444 127.141 226.942 128.638 226.942C134.593 226.942 143.524 229.903 149.478 232.863C164.365 235.825 179.25 244.705 194.138 253.587C194.138 252.566 194.141 251.549 194.263 250.65C196.679 251.84 199.101 253.043 201.528 254.255C201.749 255.564 202.081 256.547 203.07 256.547C203.454 256.166 203.748 255.809 203.969 255.474C208.593 257.787 213.249 260.127 217.955 262.467C217.955 265.428 209.024 262.467 209.024 268.389C197.115 259.507 182.227 256.547 167.342 250.626C167.342 253.586 167.342 256.547 164.365 256.547C152.455 256.547 144.008 247.666 134.593 247.666C125.661 247.666 125.661 241.745 122.685 244.705C117.299 251.845 118.413 258.985 122.1 266.127C121.09 264.269 118.911 263.26 116.731 265.429C116.731 265.429 116.731 268.39 116.731 271.351C116.731 268.39 116.731 265.429 119.709 265.429L122.686 268.39C122.686 267.663 122.505 266.938 122.192 266.299C124.617 270.943 128.114 275.588 131.618 280.232C137.572 289.115 146.503 280.232 158.414 286.153C158.414 289.115 158.414 292.076 155.435 295.036C158.414 292.076 161.391 289.115 164.367 286.153C176.276 283.193 188.184 286.153 197.118 297.996C197.118 295.035 200.094 295.035 203.072 295.035C212.003 300.955 214.981 309.836 214.981 315.759C214.981 319.894 213.816 323.798 211.882 327.473C211.112 328.389 210.364 329.329 209.631 330.292L211.564 328.049C209.789 331.264 207.434 334.3 204.758 337.156C206.365 334.8 207.959 332.491 209.631 330.292L198.787 342.873C195.29 345.923 191.614 348.728 188.184 351.285C176.276 363.127 161.39 372.009 146.502 383.85C146.502 383.85 143.526 380.89 143.526 377.93C131.617 386.812 116.731 392.731 104.821 386.812L101.844 389.772C107.797 398.655 122.685 398.655 128.639 395.694C155.286 393.042 174.784 378.541 199.93 371.28C199.733 372.046 199.611 373.126 199.533 373.656C199.533 373.779 199.533 373.904 199.659 373.904C199.983 373.904 200.305 372.069 200.503 371.113C203.062 370.388 205.681 369.741 208.371 369.189C208.174 369.479 207.821 369.519 207.411 369.926C207.785 369.926 208.536 369.926 208.536 370.423C208.536 370.671 208.287 370.921 208.287 371.169C208.287 371.728 209.537 371.045 209.537 372.04C209.537 372.661 203.159 374.899 203.159 375.148C203.159 375.272 203.284 375.396 203.41 375.396C205.41 375.396 208.035 373.034 209.286 373.034C210.661 373.034 210.162 374.277 211.162 374.899C210.037 376.268 206.411 378.257 206.286 378.63C206.286 379.003 206.411 379.127 206.661 379.252C207.536 379.252 208.6 377.697 210.287 377.261C213.913 376.329 218.289 374.589 218.914 374.526C219.539 374.526 220.289 374.649 220.79 374.899C220.79 375.831 220.665 376.515 220.665 377.759C221.04 376.019 220.54 374.776 222.291 374.776C223.729 374.776 225.478 377.387 225.916 378.257C226.604 379.626 228.729 380.619 228.667 380.619C228.667 380.619 228.792 380.494 228.792 380.371C228.792 380.122 228.292 379.998 228.042 379.626C227.291 377.138 224.164 376.641 224.164 372.538C224.164 368.684 225.915 366.196 227.041 363.088C227.915 363.212 229.541 363.585 229.541 364.083C229.291 364.083 228.166 364.579 228.166 364.827C228.166 364.952 228.291 364.952 228.291 364.952C229.042 364.827 229.542 364.206 230.167 364.206C230.167 364.703 230.416 364.827 230.416 365.325C230.416 366.072 229.917 366.693 229.541 367.315C230.541 367.315 230.791 367.875 231.417 368.309C231.667 368.185 232.167 367.812 232.667 367.812C232.918 367.812 233.418 367.812 233.418 368.185C233.418 368.309 233.293 368.434 233.293 368.684C233.293 368.807 233.418 369.057 233.669 369.057C234.169 369.057 234.169 368.186 234.919 368.186C235.168 368.31 235.419 368.808 235.794 368.808C236.168 368.808 236.42 368.186 236.794 368.186C237.044 368.31 237.545 368.559 237.92 368.559C238.169 368.559 238.42 368.186 238.42 367.814C238.42 367.689 238.294 367.44 238.294 367.316C238.294 367.067 238.794 366.819 238.919 366.819C239.169 366.819 239.295 367.193 239.42 367.193C239.545 367.193 239.545 367.067 239.545 366.944C239.545 366.695 239.169 366.321 239.169 365.949C239.169 365.701 239.42 365.327 239.545 365.327C240.045 365.327 240.045 366.198 240.421 366.198L240.546 366.074C240.546 365.7 240.296 365.203 240.296 364.829C240.296 364.085 242.172 363.586 243.047 363.586C244.796 363.586 245.547 364.58 247.048 364.58C247.173 364.58 247.423 364.332 247.547 364.207C247.547 362.715 242.671 363.71 241.796 360.85C241.796 360.726 241.233 360.786 241.233 360.601C241.233 360.601 241.233 360.538 241.296 360.477C241.296 359.979 241.172 359.731 241.172 359.357C241.296 358.984 241.547 358.487 241.796 358.114C241.671 357.989 241.172 357.741 241.172 357.615C241.172 357.242 241.296 356.87 241.296 356.496C241.296 355.377 240.045 355.377 240.045 353.885C239.67 354.133 239.17 354.259 238.92 354.259C237.42 354.259 236.795 352.89 236.044 352.89C235.669 352.89 235.669 353.263 234.794 353.263C234.544 353.139 234.043 352.89 233.794 352.89C233.418 352.89 232.794 354.133 232.044 354.133C231.919 353.885 231.543 353.76 231.419 353.76C230.543 353.76 231.731 355.625 229.293 355.625C229.043 355.625 228.668 355.75 228.668 356.123C228.668 356.371 228.794 356.869 228.794 356.993C228.293 357.117 228.043 357.74 228.043 357.986C228.043 358.609 228.918 359.106 229.168 359.727C228.792 360.597 228.168 361.343 227.418 361.593C227.168 361.344 226.917 360.971 226.917 360.724C226.917 360.599 227.043 360.475 227.043 360.351C227.043 359.977 226.417 359.727 226.292 359.727C225.916 359.727 225.542 360.225 225.167 360.351V359.727C224.791 359.727 224.729 359.914 224.541 360.225C224.291 359.977 223.916 359.977 223.666 359.977C223.421 359.977 223.191 360.046 222.977 360.135C230.294 352.018 236.035 340.071 241.773 330.561C241.773 324.64 241.773 315.759 244.752 309.837L247.73 312.798C247.73 309.837 247.73 306.877 244.752 306.877L241.773 309.837C232.841 303.917 247.729 295.036 238.795 289.115C250.705 274.312 253.682 259.508 253.682 241.746C250.705 241.746 247.729 241.746 247.729 238.786C247.729 232.864 256.66 238.786 256.66 232.864C259.637 235.826 259.637 238.786 259.637 241.746C265.592 238.786 262.615 229.904 268.568 226.943C271.545 226.943 277.502 226.943 280.478 226.943C265.592 221.024 250.706 232.867 238.795 244.708ZM226.43 177.526C226.502 179.148 228.087 180.769 229.716 182.391C228.083 182.139 226.887 181.454 226.887 179.578C226.494 178.797 226.366 178.121 226.43 177.526ZM214.978 173.657C217.956 176.617 214.978 179.578 212.001 182.539C209.896 184.632 206.046 182.539 206.046 179.578C212.002 182.538 212.002 170.696 214.978 173.657ZM207.03 168.884C208.376 168.06 210.103 169.61 209.737 171.138C207.03 168.884 205.567 174.995 204.396 173.103C203.225 171.212 205.128 170.048 207.03 168.884ZM70.0661 179.528C70.3366 179.271 70.5105 179.05 70.4872 178.903C70.396 178.842 70.326 178.927 70.3143 178.854C70.292 178.709 70.4872 178.903 70.4426 178.612C70.3981 178.32 69.9718 178.235 69.7289 178.271C69.2124 178.902 68.7511 179.415 68.3418 179.844C66.7457 180.002 65.3819 179.707 64.893 178.606C65.6672 180.541 56.2447 166.373 61.9099 167.929C68.2219 169.663 65.4434 164.443 69.0682 164.443C72.6919 164.443 75.6295 169.721 75.6295 176.233C75.6316 177.205 72.8319 178.817 70.0661 179.528Z" fill="#111827"/>
<path d="M217.956 188.46C220.262 187.084 221.996 185.565 223.224 183.972C222.363 184.365 221.576 184.861 220.932 185.5L217.956 188.46Z" fill="#111827"/>
<path d="M201.163 192.473C203.822 195.044 206.756 197.34 212.001 197.34C208.578 197.34 205.154 194.406 201.163 192.473Z" fill="#111827"/>
<path d="M191.16 191.42C193.203 191.42 196.647 192.812 199.57 191.775C197.046 190.8 194.286 190.384 191.16 191.42Z" fill="#111827"/>
<path d="M212.158 235.958C213.805 237.092 215.688 238.037 217.956 238.789C216.023 236.866 214.09 236.195 212.158 235.958Z" fill="#111827"/>
<path d="M78.0273 229.906C81.0041 229.906 86.9587 229.906 89.9355 232.866C95.8902 238.788 101.844 238.788 107.798 244.708C110.777 241.748 101.845 238.788 107.798 235.828C95.8891 235.828 89.9345 226.945 78.0273 229.906Z" fill="#111827"/>
<path d="M79.3307 250.961L79.3466 251.067C79.4229 251.217 79.5131 251.285 79.5555 251.368C79.8005 251.852 79.8164 252.535 79.8238 252.553C80.0338 253.62 79.8143 254.095 79.968 254.396C80.2045 254.863 80.0751 255.479 80.126 255.58C80.354 256.031 80.1483 256.424 80.2416 256.608C80.1812 256.852 80.2777 257.297 80.3042 257.346C80.1918 257.442 80.3986 258.739 80.3763 258.85L80.3975 258.873C80.4484 258.974 80.388 259.362 80.4728 259.528C80.5227 259.628 80.5874 259.645 80.6552 259.707C80.7411 259.657 80.8514 259.658 80.915 259.602C81.1335 259.414 80.9861 258.797 80.9988 258.787C80.8175 258.104 80.9628 258.026 80.879 257.859C80.9681 257.782 80.9235 257.076 80.9108 257.088C81.02 256.394 80.9479 256.072 80.8716 255.922C80.8207 255.822 80.7698 255.793 80.7613 255.776C80.634 255.382 80.5948 254.503 80.6033 254.521C80.4813 254.027 80.6955 253.578 80.5937 253.378L80.5174 253.3C80.6425 253.073 80.4898 252.7 80.6276 252.39C81.1165 251.321 80.6075 251.734 80.9659 251.426C81.1197 251.293 81.2396 251.31 81.2989 251.427C81.3233 251.478 81.3318 251.567 81.3658 251.633C81.3912 251.684 81.4686 251.689 81.5269 251.734C81.7072 251.579 81.6192 250.935 81.6118 250.774C81.6584 250.757 81.7274 250.673 81.7613 250.741L81.9872 250.498C82.0307 250.582 82.176 250.36 82.2184 250.445C82.3128 250.339 82.4029 250.262 82.4931 250.185C82.5949 250.098 82.7189 250.014 82.8515 249.948C82.8091 249.865 83.053 249.727 83.0021 249.626C83.1824 249.472 83.0286 249.172 83.1972 249.027C83.3627 248.884 83.5546 248.863 83.6829 248.752C83.7338 248.708 83.79 248.636 83.8537 248.581C84.0711 248.827 84.6766 248.713 84.7158 248.68C84.7667 248.78 85.2185 248.799 85.2737 248.8L85.3341 248.773L85.3437 248.645C85.2832 248.529 84.648 248.547 84.648 248.547C84.5663 248.57 83.6511 248.326 83.6267 248.275C83.5832 248.192 83.6394 248.049 83.6903 248.004C83.8325 247.883 84.1506 248.185 84.2662 248.084L84.3182 247.897C84.2259 247.713 83.8102 247.877 83.7508 247.761C83.79 247.727 83.7264 247.494 83.8547 247.383C84.0212 247.24 84.3839 247.408 84.456 247.369C84.508 247.325 84.6225 247.226 84.5642 247.109C84.5037 246.992 84.192 247.14 83.8515 247.193C83.7964 246.976 83.9502 246.773 83.6288 246.138C83.544 245.971 83.5398 245.999 83.4549 245.904L83.4167 245.793L83.3436 245.76C82.9798 245.042 83.0381 245.448 82.9363 245.247C82.9194 245.213 82.9119 245.197 82.843 245.207L82.7932 245.034C82.7508 244.95 82.7211 245.001 82.6691 245.044L82.0434 244.863L82.0519 244.88C81.9533 244.868 81.8122 244.917 81.7539 244.8C81.7104 244.716 81.7454 244.639 81.7454 244.639C81.703 244.556 81.6171 244.606 81.5789 244.639C81.5863 244.8 81.3901 244.921 81.3095 245.015C81.2502 244.898 81.0709 245.053 80.9522 244.819L80.9596 244.763C80.7528 244.534 80.4612 244.761 80.4102 244.659C80.3593 244.559 80.4272 244.62 80.3933 244.553L80.2947 244.686C80.2618 244.619 80.1536 244.734 80.1069 244.752C80.1579 244.852 80.0985 244.88 80.0338 244.935C79.9479 244.984 79.8333 244.939 79.7994 244.872C79.74 244.755 79.7527 244.6 79.7284 244.477C79.5735 244.61 79.7177 244.821 79.6149 244.909L79.4834 244.976C79.2936 244.347 79.371 244.065 79.371 244.065C79.3498 243.987 79.3158 243.919 79.2946 243.842C79.1016 244.008 79.4378 244.559 79.2702 244.703C79.2617 244.975 79.1589 245.135 79.0772 245.229C79.0348 245.145 79.0104 245.168 78.9839 245.117C78.898 245.239 78.9521 245.383 78.8641 245.461C78.4791 245.792 78.4303 244.969 78.302 245.08L78.2521 244.907C78.1238 244.656 77.9637 244.411 77.8439 244.177C77.7548 244.254 77.8905 244.306 77.8269 244.361C77.9616 244.628 78.1111 244.884 78.2585 245.14C78.1164 245.261 78.0072 244.973 77.8916 245.072C77.8014 245.149 77.8608 245.266 77.7845 245.332L77.8057 245.338C77.8396 245.405 77.6752 246.098 77.6752 246.098C77.2648 246.451 77.8587 247.33 77.7824 247.542C77.8746 247.726 77.951 248.093 77.8736 248.232L78.0337 248.621L78.0941 248.666C78.3826 249.234 78.215 249.593 78.2235 249.61L78.4621 249.717C78.5003 249.828 78.5289 249.923 78.5798 250.024C78.6488 250.157 78.7336 250.252 78.8015 250.385C78.8609 250.503 78.8471 250.658 78.8895 250.741C78.9553 250.876 79.1186 250.688 79.3307 250.961Z" fill="#111827"/>
<path d="M113.754 226.945C111.183 226.945 110.828 229.15 108.861 229.752C110.949 230.199 112.805 229.776 113.754 226.945Z" fill="#111827"/>
<path d="M104.11 227.948C101.228 226.693 98.867 225.952 98.867 229.906C98.867 231.868 101.48 228.633 104.11 227.948Z" fill="#111827"/>
<path d="M69.0937 253.59C69.0937 256.551 72.0726 256.551 72.0726 259.51C72.0726 256.551 72.0726 253.59 69.0937 253.59Z" fill="#111827"/>
</svg>
